{"glyphs":{"0":{"ha":585,"x_min":56,"x_max":526,"o":"m 56 491 q 56 624 56 491 q 114 881 56 757 q 293 1006 172 1006 q 470 883 414 1006 q 526 498 526 760 q 469 112 526 237 q 288 -14 411 -14 q 111 105 165 -14 q 56 491 56 224 m 291 911 q 193 814 222 911 q 163 496 163 717 q 193 178 163 275 q 291 81 222 81 q 361 119 334 81 q 419 496 419 201 q 388 812 419 713 q 291 911 357 911 z "},"1":{"ha":585,"x_min":90,"x_max":396,"o":"m 396 0 l 292 0 l 292 680 q 299 881 292 760 q 239 815 277 852 q 147 727 174 754 l 90 793 l 305 991 l 396 991 l 396 0 z "},"2":{"ha":585,"x_min":50,"x_max":523,"o":"m 114 845 q 56 915 112 847 q 159 985 111 965 q 272 1006 208 1006 q 440 939 379 1006 q 501 760 501 873 q 480 605 501 677 q 410 452 459 532 q 264 234 373 386 q 215 164 250 214 q 169 100 180 115 l 169 95 l 523 95 l 523 0 l 50 0 l 50 81 l 242 366 q 365 577 333 500 q 397 756 397 654 q 362 864 397 817 q 266 910 327 910 q 188 895 222 910 q 114 845 153 880 z "},"3":{"ha":585,"x_min":48,"x_max":518,"o":"m 271 1006 q 438 941 376 1006 q 501 776 501 876 q 336 520 501 576 l 336 515 q 470 435 422 498 q 518 273 518 372 q 446 64 518 142 q 253 -14 374 -14 q 52 26 132 -14 l 52 130 q 243 77 140 77 q 368 129 324 77 q 412 273 412 180 q 360 417 412 366 q 210 468 308 468 l 157 468 l 157 555 l 212 555 q 347 609 296 555 q 397 746 397 663 q 362 871 397 829 q 264 913 328 913 q 182 898 219 913 q 104 842 145 882 l 48 912 q 271 1006 144 1006 z "},"4":{"ha":585,"x_min":25,"x_max":566,"o":"m 461 311 l 566 311 l 566 219 l 461 219 l 461 0 l 361 0 l 361 219 l 25 219 l 25 307 l 341 999 l 461 999 l 461 311 m 361 311 l 361 636 q 367 868 361 771 l 362 868 q 287 681 338 802 l 121 311 l 361 311 z "},"5":{"ha":585,"x_min":64,"x_max":523,"o":"m 64 134 q 211 85 136 85 q 359 144 302 85 q 416 309 416 204 q 416 313 416 311 q 373 464 416 413 q 250 514 330 514 q 117 493 188 514 l 75 536 l 104 991 l 469 991 l 469 895 l 193 895 l 172 590 q 281 602 227 602 q 459 523 397 601 q 523 320 522 444 q 457 91 522 185 q 371 16 425 43 q 245 -14 316 -12 q 64 28 131 -14 l 64 134 z "},"6":{"ha":585,"x_min":62,"x_max":526,"o":"m 323 621 q 472 539 418 621 q 526 309 526 456 q 465 74 526 161 q 297 -14 403 -14 q 122 98 182 -14 q 62 422 62 209 q 141 862 62 720 q 380 1005 220 1005 q 473 991 438 1005 l 473 897 q 382 911 433 911 q 161 510 172 911 l 167 510 q 230 592 190 563 q 323 621 271 621 m 422 306 q 422 361 422 306 q 390 473 422 416 q 299 530 359 530 q 204 480 240 530 q 168 352 168 429 q 204 152 168 224 q 299 80 241 80 q 390 138 358 80 q 422 306 422 195 z "},"7":{"ha":585,"x_min":44,"x_max":533,"o":"m 44 895 l 44 991 l 533 991 l 533 913 l 238 0 l 129 0 l 427 895 l 44 895 z "},"8":{"ha":585,"x_min":49,"x_max":536,"o":"m 70 770 q 133 940 70 875 q 295 1005 195 1005 q 456 942 395 1005 q 517 772 517 879 q 361 519 517 615 q 496 393 456 454 q 536 249 536 332 q 470 60 536 134 q 294 -14 404 -14 q 116 56 184 -14 q 49 241 49 125 q 86 396 49 330 q 209 517 124 461 q 70 770 70 623 m 412 771 q 412 804 412 771 q 381 878 412 838 q 293 917 349 917 q 205 877 236 917 q 174 769 174 838 q 200 657 174 701 q 292 566 226 612 q 384 655 355 606 q 412 771 412 703 m 281 472 q 182 375 211 427 q 153 245 153 323 q 191 121 153 167 q 293 75 229 75 q 395 123 357 75 q 432 252 432 171 q 307 454 432 365 l 281 472 z "},"9":{"ha":585,"x_min":52,"x_max":517,"o":"m 255 369 q 106 452 160 369 q 52 683 52 536 q 115 918 52 831 q 288 1005 178 1005 q 458 894 399 1005 q 517 574 517 783 q 436 134 517 281 q 195 -14 355 -14 q 98 0 138 -14 l 98 94 q 193 79 140 79 q 353 180 296 79 q 417 480 410 282 l 412 480 q 348 398 389 427 q 255 369 308 369 m 411 649 q 375 840 411 770 q 282 910 340 910 q 191 852 224 910 q 157 684 157 795 q 188 517 157 574 q 278 460 219 460 q 374 514 337 460 q 411 649 411 568 z "},"\r":{"ha":361,"x_min":0,"x_max":0,"o":""}," ":{"ha":288,"x_min":0,"x_max":0,"o":""},"!":{"ha":329,"x_min":92,"x_max":237,"o":"m 201 272 l 127 272 l 100 991 l 229 991 l 201 272 m 92 72 q 92 114 92 72 q 164 157 92 157 q 237 72 237 157 q 217 8 237 30 q 164 -14 197 -14 q 92 72 92 -14 z "},"\"":{"ha":516,"x_min":87,"x_max":429,"o":"m 180 633 l 112 633 l 87 991 l 202 991 l 180 633 m 406 633 l 338 633 l 314 991 l 429 991 l 406 633 z "},"#":{"ha":644,"x_min":26,"x_max":617,"o":"m 617 708 l 617 626 l 488 626 l 460 389 l 584 389 l 584 304 l 449 304 l 412 0 l 332 0 l 370 304 l 224 304 l 186 0 l 108 0 l 144 304 l 26 304 l 26 389 l 155 389 l 184 626 l 58 626 l 58 708 l 195 708 l 230 991 l 309 991 l 273 708 l 422 708 l 458 991 l 534 991 l 500 708 l 617 708 m 262 626 l 235 389 l 380 389 l 410 626 l 262 626 z "},"$":{"ha":585,"x_min":59,"x_max":526,"o":"m 509 890 q 474 803 475 806 q 322 845 393 841 l 322 543 q 478 444 431 498 q 526 301 526 391 q 471 152 526 212 q 322 79 416 92 l 322 -81 l 259 -81 l 259 75 q 59 118 136 77 l 59 220 q 154 181 100 195 q 259 165 208 167 l 259 466 q 220 484 245 471 q 98 578 132 528 q 64 714 64 629 q 118 861 64 800 q 259 935 172 922 l 259 1055 l 322 1055 l 322 937 q 509 890 420 932 m 259 842 q 186 797 213 832 q 160 710 160 762 q 183 627 160 658 q 259 570 205 595 l 259 842 m 322 171 q 400 216 372 182 q 429 300 429 251 q 405 381 429 349 q 322 439 380 412 l 322 171 z "},"%":{"ha":897,"x_min":57,"x_max":840,"o":"m 57 695 q 57 771 57 695 q 96 927 57 848 q 214 1006 136 1006 q 332 927 292 1006 q 372 697 372 848 q 331 464 372 545 q 212 383 290 383 q 96 463 135 383 q 57 695 57 543 m 315 0 l 229 0 l 580 991 l 667 991 l 315 0 m 212 927 q 161 871 177 927 q 145 696 145 815 q 161 520 145 576 q 214 465 177 465 q 267 521 251 465 q 283 696 283 577 q 212 927 283 927 m 525 299 q 525 375 525 299 q 565 530 525 452 q 682 609 604 609 q 800 531 760 609 q 840 300 840 452 q 798 67 840 148 q 680 -13 757 -13 q 564 67 604 -13 q 525 299 525 146 m 680 530 q 629 474 645 530 q 614 299 614 418 q 630 124 614 180 q 682 68 646 68 q 735 124 719 68 q 751 299 751 180 q 680 530 751 530 z "},"&":{"ha":645,"x_min":43,"x_max":642,"o":"m 252 -14 q 98 56 154 -14 q 43 249 43 125 q 78 404 43 338 q 197 538 113 469 q 131 676 147 625 q 115 790 115 727 q 159 947 115 889 q 279 1006 204 1006 q 399 950 355 1006 q 444 804 444 895 q 415 649 444 713 q 316 523 385 585 q 402 378 347 473 q 469 267 458 284 q 514 465 507 344 l 609 465 q 581 312 604 393 q 528 178 558 232 l 642 0 l 525 0 q 495 52 515 17 q 465 103 475 86 q 368 13 417 39 q 252 -14 319 -14 m 279 914 q 230 883 248 914 q 213 798 213 852 q 229 690 213 744 q 271 595 245 635 q 330 682 313 634 q 347 795 347 730 q 279 914 347 914 m 243 468 q 168 370 189 417 q 146 248 146 323 q 178 127 146 172 q 262 82 209 82 q 413 184 347 82 l 243 468 z "},"'":{"ha":290,"x_min":87,"x_max":202,"o":"m 180 633 l 112 633 l 87 991 l 202 991 l 180 633 z "},"(":{"ha":406,"x_min":64,"x_max":355,"o":"m 355 991 q 215 702 263 859 q 168 381 168 545 q 217 59 168 218 q 353 -220 267 -100 l 266 -220 q 116 49 169 -106 q 64 380 64 205 q 117 715 64 555 q 266 991 170 875 l 355 991 z "},")":{"ha":406,"x_min":50,"x_max":342,"o":"m 139 991 q 289 715 236 875 q 342 380 342 555 q 289 50 342 205 q 139 -220 237 -106 l 52 -220 q 189 62 140 -96 q 237 383 237 220 q 190 702 237 546 q 50 991 142 859 l 139 991 z "},"*":{"ha":551,"x_min":54,"x_max":497,"o":"m 309 873 l 484 918 l 497 819 l 330 812 l 443 654 l 354 609 l 276 774 l 197 608 l 109 654 l 218 812 l 54 819 l 71 918 l 242 873 l 222 1055 l 330 1055 l 309 873 z "},"+":{"ha":578,"x_min":51,"x_max":527,"o":"m 330 532 l 527 532 l 527 448 l 330 448 l 330 170 l 248 170 l 248 448 l 51 448 l 51 532 l 248 532 l 248 812 l 330 812 l 330 532 z "},",":{"ha":315,"x_min":47,"x_max":236,"o":"m 227 146 l 236 131 q 121 -179 193 -20 l 47 -179 q 115 146 95 -6 l 227 146 z "},"-":{"ha":379,"x_min":40,"x_max":339,"o":"m 339 325 l 40 325 l 40 423 l 339 423 l 339 325 z "},".":{"ha":315,"x_min":85,"x_max":230,"o":"m 157 -14 q 85 72 85 -14 q 158 157 85 157 q 230 72 230 157 q 211 8 230 29 q 157 -14 191 -14 z "},"/":{"ha":509,"x_min":26,"x_max":489,"o":"m 130 0 l 26 0 l 388 991 l 489 991 l 130 0 z "},":":{"ha":315,"x_min":85,"x_max":230,"o":"m 157 578 q 85 663 85 578 q 158 748 85 748 q 230 663 230 748 q 211 600 230 621 q 157 578 191 578 m 157 -14 q 85 72 85 -14 q 158 157 85 157 q 230 72 230 157 q 211 8 230 29 q 157 -14 191 -14 z "},";":{"ha":315,"x_min":47,"x_max":235,"o":"m 85 663 q 85 705 85 663 q 157 748 85 748 q 230 663 230 748 q 210 600 230 621 q 157 578 191 578 q 85 663 85 578 m 226 146 l 235 130 q 121 -179 194 -16 l 47 -179 q 115 146 96 2 l 226 146 z "},"<":{"ha":578,"x_min":51,"x_max":528,"o":"m 528 706 l 146 490 l 528 274 l 528 177 l 51 458 l 51 524 l 528 802 l 528 706 z "},"=":{"ha":578,"x_min":51,"x_max":527,"o":"m 527 589 l 51 589 l 51 672 l 527 672 l 527 589 m 527 306 l 51 306 l 51 389 l 527 389 l 527 306 z "},">":{"ha":578,"x_min":50,"x_max":527,"o":"m 527 524 l 527 458 l 50 177 l 50 274 l 432 490 l 50 706 l 50 802 l 527 524 z "},"?":{"ha":437,"x_min":21,"x_max":403,"o":"m 21 948 q 201 1006 102 1006 q 351 945 299 1006 q 403 772 403 884 q 382 643 403 693 q 306 516 361 593 q 236 401 250 439 q 222 302 222 363 l 222 272 l 135 272 l 135 311 q 151 435 135 387 q 211 541 166 483 q 284 664 267 620 q 300 774 300 709 q 272 876 300 840 q 186 912 243 912 q 64 869 129 912 l 21 948 m 181 157 q 234 135 215 157 q 254 72 254 114 q 234 8 254 30 q 181 -13 215 -13 q 109 72 109 -13 q 181 157 109 157 z "},"@":{"ha":892,"x_min":66,"x_max":829,"o":"m 430 -119 q 162 14 258 -119 q 66 393 66 148 q 178 836 66 673 q 474 1000 289 1000 q 664 937 583 1000 q 787 761 745 873 q 829 489 829 648 q 785 243 829 330 q 656 157 741 157 q 543 281 553 157 l 537 281 q 493 188 522 218 q 419 157 464 157 q 314 220 351 157 q 276 402 276 283 q 329 642 276 557 q 477 726 382 726 q 608 704 543 726 l 595 382 l 595 347 q 610 263 595 289 q 657 238 626 238 q 739 504 739 238 q 667 806 739 694 q 475 919 595 919 q 304 853 378 919 q 193 671 231 787 q 155 406 155 555 q 228 78 155 196 q 433 -40 302 -40 q 617 11 534 -40 l 617 -72 q 430 -119 535 -119 m 469 651 q 394 586 421 651 q 368 400 368 520 q 435 238 368 238 q 483 291 466 238 q 506 455 500 343 l 516 645 q 469 651 495 651 z "},"A":{"ha":614,"x_min":0,"x_max":614,"o":"m 241 992 l 369 992 q 614 0 410 825 l 507 0 l 430 323 l 183 323 l 107 0 l 0 0 q 241 992 199 822 m 347 684 l 325 781 q 304 897 312 838 q 278 743 294 812 q 256 642 263 675 q 230 532 248 609 q 204 422 212 454 l 408 422 l 347 684 z "},"B":{"ha":644,"x_min":101,"x_max":592,"o":"m 101 991 l 312 991 q 572 750 572 991 q 534 597 572 655 q 427 525 497 538 l 427 519 q 552 443 511 500 q 592 283 592 385 q 529 75 592 151 q 353 0 465 0 l 101 0 l 101 991 m 203 898 l 203 564 l 315 564 q 430 607 395 564 q 465 743 465 651 q 311 898 465 898 l 203 898 m 203 472 l 203 94 l 336 94 q 484 290 484 94 q 442 425 484 378 q 322 472 400 472 l 203 472 z "},"C":{"ha":603,"x_min":69,"x_max":571,"o":"m 393 -14 q 156 120 243 -14 q 69 491 69 253 q 155 868 69 730 q 395 1006 241 1006 q 571 956 490 1006 l 530 867 q 397 910 466 910 q 236 799 295 910 q 178 495 178 688 q 237 192 178 302 q 402 82 297 82 q 548 117 481 82 l 548 22 q 393 -14 488 -14 z "},"D":{"ha":708,"x_min":101,"x_max":639,"o":"m 101 991 l 310 991 q 554 867 469 991 q 639 498 639 742 q 553 127 639 254 q 300 0 468 0 l 101 0 l 101 991 m 207 898 l 207 94 l 297 94 q 530 500 530 94 q 473 797 530 696 q 306 898 416 898 l 207 898 z "},"E":{"ha":553,"x_min":102,"x_max":490,"o":"m 490 896 l 207 896 l 207 566 l 473 566 l 473 471 l 207 471 l 207 96 l 490 96 l 490 0 l 102 0 l 102 991 l 490 991 l 490 896 z "},"F":{"ha":519,"x_min":102,"x_max":490,"o":"m 490 896 l 207 896 l 207 524 l 473 524 l 473 428 l 207 428 l 207 0 l 102 0 l 102 991 l 490 991 l 490 896 z "},"G":{"ha":737,"x_min":69,"x_max":664,"o":"m 664 516 l 664 34 q 416 -14 547 -14 q 160 120 251 -14 q 69 496 69 254 q 166 871 69 737 q 439 1006 262 1006 q 656 943 554 1006 q 615 854 622 867 q 443 910 524 910 q 247 802 315 910 q 178 496 178 694 q 242 191 178 299 q 421 82 306 82 q 559 103 500 82 l 559 420 l 418 420 l 418 516 l 664 516 z "},"H":{"ha":726,"x_min":102,"x_max":625,"o":"m 625 0 l 519 0 l 519 470 l 207 470 l 207 0 l 102 0 l 102 991 l 207 991 l 207 566 l 519 566 l 519 991 l 625 991 l 625 0 z "},"I":{"ha":328,"x_min":113,"x_max":214,"o":"m 214 0 l 113 0 l 113 991 l 214 991 l 214 0 z "},"J":{"ha":301,"x_min":-75,"x_max":202,"o":"m 202 991 l 202 -1 q 154 -194 203 -125 q 18 -262 104 -262 q 16 -262 16 -262 q -75 -245 -39 -262 l -75 -151 q 7 -164 -38 -164 q 75 -126 52 -164 q 97 -5 97 -87 l 97 991 l 202 991 z "},"K":{"ha":608,"x_min":101,"x_max":607,"o":"m 207 0 l 101 0 l 101 991 l 207 991 l 207 477 q 480 991 239 544 l 593 991 l 351 557 q 473 292 386 482 q 607 0 559 102 l 492 0 q 282 471 321 384 l 207 378 l 207 0 z "},"L":{"ha":507,"x_min":102,"x_max":479,"o":"m 207 96 l 479 96 l 479 0 l 102 0 l 102 991 l 207 991 l 207 96 z "},"M":{"ha":994,"x_min":101,"x_max":891,"o":"m 891 0 l 789 0 l 789 702 q 797 882 789 768 l 791 882 l 553 0 l 437 0 l 197 883 l 191 883 q 200 703 200 760 l 200 0 l 101 0 l 101 991 l 260 991 l 456 269 q 492 111 480 182 l 497 111 q 534 268 507 169 l 728 991 l 891 991 l 891 0 z "},"N":{"ha":782,"x_min":102,"x_max":681,"o":"m 681 0 l 549 0 l 197 833 l 191 833 q 201 655 201 746 l 201 0 l 102 0 l 102 991 l 234 991 l 584 168 l 589 168 q 581 349 581 271 l 581 991 l 681 991 l 681 0 z "},"O":{"ha":757,"x_min":69,"x_max":687,"o":"m 380 1006 q 608 873 528 1006 q 687 496 687 741 q 607 119 687 252 q 377 -14 528 -14 q 148 119 227 -14 q 69 498 69 252 q 380 1006 69 1006 m 380 909 q 229 805 279 909 q 178 496 178 700 q 229 188 178 293 q 378 83 279 83 q 528 187 477 83 q 578 497 578 291 q 380 909 578 909 z "},"P":{"ha":602,"x_min":101,"x_max":557,"o":"m 101 991 l 275 991 q 489 920 420 991 q 557 700 557 849 q 269 393 557 393 l 207 393 l 207 0 l 101 0 l 101 991 m 207 898 l 207 486 l 263 486 q 407 535 363 486 q 451 693 451 585 q 407 850 451 802 q 271 898 363 898 l 207 898 z "},"Q":{"ha":757,"x_min":69,"x_max":687,"o":"m 378 -14 q 148 119 227 -14 q 69 498 69 252 q 380 1006 69 1006 q 608 873 528 1006 q 687 497 687 741 q 640 186 687 309 q 504 16 593 63 l 661 -236 l 534 -236 l 404 -12 q 391 -12 399 -11 q 378 -14 382 -14 m 380 909 q 229 805 279 909 q 178 496 178 700 q 229 188 178 293 q 378 83 279 83 q 528 187 477 83 q 578 497 578 291 q 380 909 578 909 z "},"R":{"ha":625,"x_min":102,"x_max":604,"o":"m 102 991 l 272 991 q 489 922 419 991 q 558 711 558 853 q 523 544 558 610 q 410 444 487 478 l 604 0 l 489 0 l 313 418 l 207 418 l 207 0 l 102 0 l 102 991 m 207 895 l 207 511 l 285 511 q 409 560 367 511 q 451 708 451 610 q 408 851 451 807 q 272 895 366 895 l 207 895 z "},"S":{"ha":557,"x_min":54,"x_max":505,"o":"m 249 82 q 358 131 317 82 q 400 250 400 180 q 363 367 400 320 q 258 456 326 414 q 106 578 150 516 q 62 751 62 641 q 130 933 62 861 q 304 1006 197 1006 q 495 957 412 1006 q 458 865 482 926 q 312 907 379 907 q 206 863 245 907 q 166 748 166 819 q 195 636 166 677 q 318 542 224 594 q 461 422 417 488 q 505 264 505 357 q 436 62 505 137 q 251 -14 368 -14 q 54 26 134 -14 l 54 134 q 148 96 95 111 q 249 82 201 82 z "},"T":{"ha":521,"x_min":12,"x_max":507,"o":"m 507 895 l 313 895 l 313 0 l 208 0 l 208 895 l 12 895 l 12 991 l 507 991 l 507 895 z "},"U":{"ha":718,"x_min":94,"x_max":623,"o":"m 623 991 l 623 332 q 556 74 623 161 q 360 -14 490 -14 q 162 75 230 -14 q 94 332 94 164 l 94 991 l 200 991 l 200 322 q 241 144 200 205 q 360 83 283 83 q 477 144 437 83 q 517 323 517 205 l 517 991 l 623 991 z "},"V":{"ha":594,"x_min":0,"x_max":593,"o":"m 359 0 l 233 0 q 0 991 173 253 l 107 991 q 258 324 189 628 q 294 109 281 222 q 322 277 307 205 l 486 991 l 593 991 l 359 0 z "},"W":{"ha":997,"x_min":8,"x_max":987,"o":"m 987 991 q 787 0 948 799 l 657 0 l 557 503 q 546 556 554 519 q 536 605 538 593 q 528 647 534 616 q 519 702 522 677 q 510 767 515 726 q 497 860 504 808 l 489 800 l 479 736 q 437 503 450 580 l 339 0 l 210 0 q 8 991 62 728 l 115 991 q 229 392 200 550 q 277 106 273 139 q 311 325 298 259 l 441 991 l 555 991 l 667 424 q 720 105 696 275 q 757 349 740 269 l 882 991 l 987 991 z "},"X":{"ha":542,"x_min":9,"x_max":532,"o":"m 340 510 l 532 0 l 422 0 l 276 422 l 117 0 l 9 0 l 223 523 l 34 991 l 142 991 l 284 608 l 417 991 l 526 991 l 340 510 z "},"Y":{"ha":527,"x_min":0,"x_max":527,"o":"m 315 0 l 210 0 l 210 388 l 0 991 l 111 991 l 264 519 l 416 991 l 527 991 l 315 391 l 315 0 z "},"Z":{"ha":488,"x_min":35,"x_max":460,"o":"m 460 96 l 460 0 l 35 0 l 35 83 l 333 895 l 41 895 l 41 991 l 452 991 l 452 908 l 151 96 l 460 96 z "},"[":{"ha":438,"x_min":109,"x_max":394,"o":"m 394 906 l 207 906 l 207 -134 l 394 -134 l 394 -220 l 109 -220 l 109 991 l 394 991 l 394 906 z "},"\\":{"ha":509,"x_min":26,"x_max":489,"o":"m 489 0 l 385 0 l 26 991 l 127 991 l 489 0 z "},"]":{"ha":438,"x_min":44,"x_max":330,"o":"m 330 -220 l 44 -220 l 44 -134 l 232 -134 l 232 906 l 44 906 l 44 991 l 330 991 l 330 -220 z "},"^":{"ha":616,"x_min":20,"x_max":597,"o":"m 597 462 l 500 462 l 304 878 l 115 462 l 20 462 l 271 992 l 332 992 l 597 462 z "},"_":{"ha":538,"x_min":-3,"x_max":541,"o":"m 541 -193 l -3 -193 l -3 -125 l 541 -125 l 541 -193 z "},"`":{"ha":761,"x_min":267,"x_max":520,"o":"m 267 1064 l 395 1064 q 451 959 414 1019 q 520 857 487 899 l 520 842 l 456 842 q 349 945 410 880 q 267 1052 289 1010 l 267 1064 z "},"a":{"ha":570,"x_min":47,"x_max":483,"o":"m 138 626 l 99 701 q 287 757 187 757 q 435 695 387 757 q 483 503 483 633 l 483 0 l 404 0 l 387 103 l 383 103 q 220 -12 328 -12 q 93 45 138 -12 q 47 208 47 102 q 111 375 47 315 q 294 441 175 436 l 380 446 l 380 504 q 356 631 380 591 q 271 671 332 671 q 138 626 211 671 m 380 298 l 380 370 q 311 367 357 370 q 193 322 231 363 q 155 204 155 282 q 248 69 155 69 q 345 130 310 69 q 380 298 380 191 z "},"b":{"ha":633,"x_min":91,"x_max":574,"o":"m 193 743 l 189 644 l 195 644 q 358 755 254 755 q 517 658 461 755 q 574 373 574 560 q 518 86 574 185 q 358 -14 462 -14 q 193 96 254 -14 l 186 96 q 170 0 180 59 l 91 0 l 91 1055 l 193 1055 l 193 743 m 193 379 l 193 361 q 228 146 193 216 q 333 77 262 77 q 435 150 403 77 q 468 371 468 222 q 435 592 468 520 q 331 665 403 665 q 227 599 260 665 q 193 379 193 533 z "},"c":{"ha":458,"x_min":60,"x_max":433,"o":"m 300 -14 q 120 83 181 -14 q 60 367 60 180 q 300 756 60 756 q 433 724 377 756 l 399 640 q 310 665 351 665 q 165 368 165 665 q 202 149 165 219 q 314 78 238 78 q 427 106 364 78 l 427 18 q 300 -14 366 -14 z "},"d":{"ha":633,"x_min":59,"x_max":542,"o":"m 542 0 l 463 0 q 449 101 452 72 l 443 101 q 279 -14 387 -14 q 115 84 172 -14 q 59 369 59 182 q 115 656 59 555 q 274 756 170 756 q 366 728 322 756 q 437 648 409 699 l 444 648 q 439 750 441 700 l 439 1055 l 542 1055 l 542 0 m 439 333 l 439 369 q 404 593 439 522 q 298 664 369 664 q 197 590 228 664 q 165 368 165 515 q 198 147 165 220 q 298 74 230 74 q 403 138 367 74 q 439 333 439 203 z "},"e":{"ha":576,"x_min":60,"x_max":517,"o":"m 323 -14 q 129 86 197 -14 q 60 370 60 185 q 121 655 60 554 q 298 756 183 756 q 458 668 399 756 q 517 428 517 579 l 517 356 l 164 356 q 334 75 168 75 q 491 123 411 75 l 491 33 q 323 -14 415 -14 m 416 438 q 383 608 416 545 q 294 671 351 671 q 166 438 177 671 l 416 438 z "},"f":{"ha":342,"x_min":15,"x_max":382,"o":"m 107 804 q 147 1001 107 939 q 279 1063 187 1063 q 382 1041 334 1063 l 351 956 q 285 972 317 972 q 225 934 242 971 q 209 802 209 897 l 209 742 l 328 742 l 328 656 l 209 656 l 209 0 l 107 0 l 107 656 l 15 656 l 15 711 q 107 747 32 718 l 107 804 z "},"g":{"ha":546,"x_min":20,"x_max":534,"o":"m 263 115 l 330 115 q 481 63 429 115 q 534 -90 534 11 q 455 -268 534 -203 q 244 -334 377 -334 q 78 -282 136 -334 q 20 -133 20 -230 q 165 58 20 5 q 110 100 130 73 q 89 161 89 127 q 108 221 89 195 q 172 282 127 248 q 90 366 119 308 q 62 501 62 424 q 116 689 62 621 q 269 756 171 756 q 351 741 310 756 q 404 742 359 742 q 528 741 448 742 l 528 676 l 431 662 q 460 593 449 637 q 471 504 471 549 q 416 326 471 393 q 271 259 360 259 l 266 259 q 235 262 245 259 q 191 220 205 240 q 176 173 176 200 q 199 131 176 146 q 263 115 222 115 m 371 505 q 345 635 371 589 q 267 681 318 681 q 189 634 216 681 q 161 503 161 587 q 190 376 161 418 q 268 333 218 333 q 371 505 371 333 m 307 21 l 256 21 q 153 -18 190 21 q 117 -122 117 -57 q 151 -221 117 -186 q 250 -255 184 -255 q 387 -213 338 -255 q 436 -97 436 -171 q 307 21 436 21 z "},"h":{"ha":627,"x_min":91,"x_max":541,"o":"m 193 1055 l 193 748 q 189 642 193 703 l 196 642 q 261 726 218 695 q 356 756 304 756 q 496 693 452 756 q 541 503 541 630 l 541 0 l 437 0 l 437 488 q 413 624 437 582 q 336 666 389 666 q 228 598 263 666 q 193 389 193 530 l 193 0 l 91 0 l 91 1055 l 193 1055 z "},"i":{"ha":286,"x_min":83,"x_max":204,"o":"m 83 944 q 83 962 83 944 q 100 999 83 979 q 144 1019 117 1019 q 188 999 172 1019 q 204 944 204 979 q 188 889 204 909 q 144 869 172 869 q 100 889 117 869 q 83 944 83 909 m 195 0 l 92 0 l 92 743 l 195 743 l 195 0 z "},"j":{"ha":287,"x_min":-15,"x_max":205,"o":"m 84 945 q 84 962 84 945 q 101 999 84 979 q 146 1019 118 1019 q 190 999 174 1019 q 205 945 205 979 q 190 890 205 910 q 146 869 174 869 q 101 890 119 869 q 84 945 84 910 m 196 743 l 196 -120 q 47 -334 196 -334 q -15 -320 9 -334 l -15 -230 q 33 -241 10 -241 q 79 -212 64 -241 q 93 -119 93 -182 l 93 743 l 196 743 z "},"k":{"ha":539,"x_min":91,"x_max":532,"o":"m 194 0 l 91 0 l 91 1055 l 194 1055 l 194 511 l 188 378 l 194 378 l 237 458 l 408 743 l 517 743 l 341 458 l 532 0 l 424 0 l 272 377 l 194 284 l 194 0 z "},"l":{"ha":284,"x_min":91,"x_max":194,"o":"m 194 0 l 91 0 l 91 1055 l 194 1055 l 194 0 z "},"m":{"ha":947,"x_min":91,"x_max":860,"o":"m 174 742 l 185 642 l 193 642 q 351 756 239 756 q 511 627 473 756 q 532 663 524 650 q 557 696 540 675 q 591 728 574 717 q 685 756 633 756 q 817 690 774 756 q 860 484 860 623 l 860 0 l 758 0 l 758 484 q 658 663 758 663 q 558 601 589 663 q 527 409 527 539 l 527 0 l 424 0 l 424 484 q 324 663 424 663 q 224 599 256 663 q 193 390 193 535 l 193 0 l 91 0 l 91 742 l 174 742 z "},"n":{"ha":627,"x_min":91,"x_max":541,"o":"m 174 742 l 185 642 l 193 642 q 260 726 216 696 q 358 756 304 756 q 495 694 450 756 q 541 503 541 632 l 541 0 l 437 0 l 437 488 q 338 666 437 666 q 224 592 255 666 q 193 336 193 517 l 193 0 l 91 0 l 91 742 l 174 742 z "},"o":{"ha":612,"x_min":59,"x_max":553,"o":"m 59 373 q 59 465 59 373 q 123 657 59 557 q 304 756 187 756 q 488 654 422 756 q 553 370 553 552 q 488 87 553 187 q 306 -14 423 -14 q 124 87 189 -14 q 59 373 59 188 m 306 665 q 198 593 232 665 q 165 373 165 521 q 199 152 165 225 q 306 78 233 78 q 447 371 447 78 q 306 665 447 665 z "},"p":{"ha":633,"x_min":91,"x_max":574,"o":"m 363 754 q 520 655 466 754 q 574 372 574 555 q 518 87 574 189 q 361 -14 463 -14 q 264 15 307 -14 q 195 96 221 43 l 187 96 q 194 5 193 26 l 194 -334 l 91 -334 l 91 742 l 172 742 l 187 642 l 194 642 q 363 754 249 754 m 193 376 q 228 149 193 222 q 333 77 262 77 q 435 150 403 77 q 468 372 468 222 q 436 593 468 522 q 333 665 405 665 q 228 601 262 665 q 193 397 194 536 l 193 376 z "},"q":{"ha":633,"x_min":59,"x_max":542,"o":"m 440 104 q 277 -14 383 -14 q 115 84 171 -14 q 59 369 59 181 q 115 655 59 557 q 271 753 171 753 q 368 728 327 753 q 437 644 408 702 l 444 644 q 457 742 452 709 l 542 742 l 542 -334 l 439 -334 l 439 -16 q 446 104 439 26 l 440 104 m 439 338 l 439 369 q 404 593 439 522 q 299 664 370 664 q 197 590 229 664 q 165 365 165 515 q 198 145 165 215 q 299 75 230 75 q 403 142 368 75 q 439 338 439 208 z "},"r":{"ha":408,"x_min":91,"x_max":399,"o":"m 192 617 q 254 723 219 689 q 329 757 289 757 q 399 747 369 757 l 382 646 q 332 655 357 655 q 233 580 273 655 q 194 389 194 505 l 194 0 l 91 0 l 91 743 l 176 743 l 187 617 l 192 617 z "},"s":{"ha":465,"x_min":47,"x_max":418,"o":"m 47 131 q 118 95 71 110 q 213 79 165 79 q 292 109 262 79 q 321 184 321 139 q 305 251 321 218 q 285 276 300 261 q 262 295 269 290 q 213 331 256 300 q 130 393 170 361 q 47 565 47 459 q 105 703 47 650 q 256 757 164 757 q 418 711 348 757 l 376 631 q 260 669 315 669 q 177 640 206 669 q 149 566 149 612 q 189 475 149 506 l 277 409 q 324 373 307 387 q 361 337 341 359 q 393 294 382 315 q 418 184 418 245 q 365 36 418 85 q 210 -14 311 -14 q 47 28 109 -14 l 47 131 z "},"t":{"ha":353,"x_min":26,"x_max":330,"o":"m 199 742 l 322 742 l 322 656 l 199 656 l 199 188 q 214 102 199 127 q 266 77 230 77 q 330 88 302 77 l 330 5 q 235 -14 296 -14 q 126 46 157 -14 q 96 236 96 106 l 96 656 l 26 656 l 26 709 l 101 743 l 131 913 l 199 913 l 199 742 z "},"u":{"ha":627,"x_min":87,"x_max":536,"o":"m 536 0 l 453 0 q 440 101 448 38 l 433 101 q 366 17 409 47 q 269 -14 322 -14 q 132 52 176 -14 q 87 258 87 117 l 87 742 l 190 742 l 190 272 q 214 124 190 171 q 289 77 237 77 q 399 142 363 77 q 434 352 434 207 l 434 742 l 536 742 l 536 0 z "},"v":{"ha":501,"x_min":4,"x_max":496,"o":"m 311 0 l 186 0 l 4 742 l 110 742 q 153 555 121 694 q 248 103 216 292 l 252 103 q 268 202 259 155 q 391 742 277 250 l 496 742 l 311 0 z "},"w":{"ha":842,"x_min":14,"x_max":827,"o":"m 419 635 q 298 0 401 520 l 170 0 l 14 742 l 116 742 q 203 304 182 423 q 236 100 224 186 l 240 100 q 274 319 254 220 l 359 742 l 481 742 l 568 317 q 601 100 579 267 l 605 100 q 727 742 610 163 l 827 742 q 667 0 808 654 l 538 0 l 441 507 q 421 635 427 592 l 419 635 z "},"x":{"ha":506,"x_min":19,"x_max":487,"o":"m 306 378 l 487 0 l 379 0 l 252 293 l 125 0 l 19 0 l 201 383 l 31 743 l 140 743 l 256 467 l 372 743 l 479 743 l 306 378 z "},"y":{"ha":501,"x_min":4,"x_max":496,"o":"m 199 -280 q 188 -292 199 -280 q 148 -319 178 -304 q 81 -334 117 -334 q 8 -322 45 -334 l 8 -233 q 64 -242 37 -242 q 132 -209 106 -242 q 175 -104 158 -176 l 201 -3 l 4 742 l 110 742 l 218 294 q 252 116 237 216 l 257 116 q 288 289 271 210 q 390 742 361 610 l 496 742 q 307 -4 406 387 q 274 -120 288 -76 q 240 -210 260 -165 q 199 -280 220 -256 z "},"z":{"ha":410,"x_min":36,"x_max":379,"o":"m 379 86 l 379 0 l 36 0 l 36 73 l 258 656 l 50 656 l 50 743 l 369 743 l 369 665 l 150 86 l 379 86 z "},"{":{"ha":500,"x_min":55,"x_max":445,"o":"m 307 768 l 307 557 q 272 442 306 481 q 166 389 239 402 l 166 382 q 273 330 239 370 q 307 217 307 290 l 307 20 q 337 -98 307 -61 q 445 -136 368 -135 l 445 -220 q 266 -165 323 -217 q 206 -11 208 -114 l 206 206 q 172 313 206 281 q 55 345 138 345 l 55 427 q 171 456 136 427 q 206 562 206 485 l 206 783 q 266 938 206 886 q 445 991 325 989 l 445 907 q 340 873 373 907 q 307 768 307 840 z "},"|":{"ha":604,"x_min":257,"x_max":347,"o":"m 347 -329 l 257 -329 l 257 1054 l 347 1054 l 347 -329 z "},"}":{"ha":500,"x_min":54,"x_max":445,"o":"m 294 783 l 294 562 q 328 457 294 488 q 445 427 362 427 l 445 345 q 330 316 367 345 q 294 206 294 288 l 294 -11 q 54 -220 294 -214 l 54 -136 q 161 -101 127 -135 q 194 3 194 -66 l 194 216 q 228 330 194 290 q 334 382 261 369 l 334 389 q 228 441 262 401 q 194 557 194 481 l 194 768 q 161 873 194 839 q 54 907 127 907 l 54 991 q 294 783 294 985 z "},"~":{"ha":578,"x_min":76,"x_max":534,"o":"m 406 409 q 321 428 366 409 q 269 453 314 431 q 197 482 223 476 q 85 435 144 482 q 76 428 77 429 l 76 524 q 130 555 95 541 q 192 570 164 570 q 228 563 215 568 q 245 557 241 559 q 259 552 250 556 q 272 547 269 548 q 286 541 276 545 q 298 534 296 536 q 312 527 301 532 q 325 521 323 522 q 410 494 375 494 q 534 574 473 494 l 534 481 q 406 409 482 409 z "}," ":{"ha":361,"x_min":0,"x_max":0,"o":""},"¡":{"ha":329,"x_min":92,"x_max":236,"o":"m 92 659 q 110 722 92 701 q 163 744 129 744 q 217 723 197 744 q 236 659 236 701 q 217 595 236 616 q 163 574 197 574 q 92 659 92 574 m 228 -260 l 98 -260 l 126 459 l 200 459 l 228 -260 z "},"¢":{"ha":585,"x_min":109,"x_max":482,"o":"m 482 861 l 448 775 q 359 800 395 800 q 250 726 285 800 q 216 505 216 652 q 359 215 216 215 q 475 245 414 215 l 475 155 q 373 123 435 131 l 373 -14 l 298 -14 l 298 127 q 109 507 109 166 q 298 888 109 848 l 298 1004 l 373 1004 l 373 892 q 482 861 435 886 z "},"£":{"ha":585,"x_min":54,"x_max":536,"o":"m 160 540 l 160 718 q 207 936 160 865 q 363 1006 254 1006 q 534 949 459 1006 l 490 867 q 366 913 432 913 q 289 873 313 913 q 264 747 264 833 l 264 540 l 432 540 l 432 455 l 264 455 l 264 360 q 257 260 264 310 q 180 96 250 146 l 536 96 l 536 0 l 58 0 l 58 88 q 160 289 160 134 l 160 455 l 54 455 l 54 540 l 160 540 z "},"¤":{"ha":764,"x_min":77,"x_max":686,"o":"m 595 648 q 648 489 648 578 q 595 332 648 401 q 686 241 640 286 l 629 186 l 538 275 q 379 224 467 224 q 222 276 290 224 l 134 187 l 78 244 l 167 332 q 115 489 115 402 q 167 647 115 575 l 77 737 l 133 794 l 223 703 q 381 757 294 757 q 538 704 469 757 q 628 794 583 749 l 686 739 q 595 648 656 708 m 572 489 q 572 527 572 489 q 517 622 572 565 q 384 679 462 679 q 250 624 306 679 q 194 491 194 570 q 249 357 194 412 q 381 302 303 302 q 516 357 460 302 q 572 489 572 412 z "},"¥":{"ha":585,"x_min":50,"x_max":534,"o":"m 499 456 l 499 381 l 345 381 l 345 258 l 499 258 l 499 183 l 345 183 l 345 0 l 238 0 l 238 183 l 85 183 l 85 258 l 238 258 l 238 380 q 237 381 237 380 l 85 381 l 85 456 l 214 456 q 132 724 186 545 q 50 991 77 902 l 157 991 l 292 505 l 425 991 l 534 991 q 368 456 478 813 l 499 456 z "},"¦":{"ha":604,"x_min":257,"x_max":347,"o":"m 347 511 l 257 511 l 257 1054 l 347 1054 l 347 511 m 347 -329 l 257 -329 l 257 215 l 347 215 l 347 -329 z "},"§":{"ha":512,"x_min":56,"x_max":447,"o":"m 271 1055 l 285 1055 q 360 1046 328 1055 q 437 1015 392 1037 l 405 940 q 278 978 335 978 q 192 952 221 978 q 162 882 162 926 q 178 833 162 852 q 273 752 189 802 l 315 727 q 417 642 387 683 q 446 544 446 602 q 424 443 446 487 q 364 375 402 399 q 425 309 406 343 q 444 230 444 275 q 386 89 444 142 q 225 37 328 37 q 56 75 122 37 l 56 163 q 222 113 127 113 q 315 144 281 113 q 350 223 350 175 q 328 285 350 256 q 249 347 307 313 q 162 400 192 380 q 106 446 132 420 q 68 500 79 472 q 58 563 58 528 q 83 658 58 616 q 154 722 109 699 q 68 876 68 781 q 124 1006 68 957 l 134 1013 q 271 1055 188 1055 m 354 527 q 328 606 354 574 q 219 682 301 638 q 166 640 184 669 q 147 572 147 612 q 174 503 147 533 q 267 437 200 473 l 303 418 q 354 527 354 456 z "},"¨":{"ha":764,"x_min":210,"x_max":554,"o":"m 227 994 q 235 1002 227 994 q 269 1010 243 1010 q 310 994 294 1010 q 326 945 326 977 q 310 896 326 913 q 269 878 294 878 q 227 896 243 878 q 210 945 210 913 q 227 994 210 977 m 454 994 q 462 1002 454 994 q 496 1010 470 1010 q 538 994 522 1010 q 554 945 554 977 q 538 896 554 913 q 496 878 522 878 q 454 896 471 878 q 438 945 438 913 q 454 994 438 977 z "},"©":{"ha":1152,"x_min":66,"x_max":1086,"o":"m 576 1006 q 833 936 715 1006 q 1018 748 951 865 q 1086 496 1086 631 q 1045 297 1086 391 q 935 134 1004 202 q 772 26 867 66 q 572 -14 678 -14 q 370 29 467 -14 q 208 142 274 72 q 104 306 142 213 q 66 500 66 398 q 108 697 66 602 q 219 860 150 793 q 382 966 289 927 q 576 1006 476 1006 m 884 805 q 854 834 884 805 q 744 898 825 863 q 574 933 663 933 q 404 898 486 933 q 264 802 322 862 q 172 662 206 743 q 138 496 138 582 q 199 273 138 374 q 359 115 259 172 q 576 58 460 58 q 748 94 666 58 q 887 189 829 130 q 979 329 945 248 q 1013 497 1013 409 q 978 666 1013 585 q 884 805 943 747 m 596 186 q 395 266 465 186 q 324 491 324 346 q 399 720 324 635 q 603 804 475 804 q 772 764 690 804 l 739 690 q 606 724 671 724 q 470 663 519 724 q 420 491 420 602 q 465 323 420 380 q 602 267 509 267 q 745 299 671 267 l 745 218 q 596 186 673 186 z "},"ª":{"ha":415,"x_min":39,"x_max":341,"o":"m 267 848 q 250 917 267 895 q 192 938 233 938 q 98 907 152 938 q 73 965 78 954 q 208 1003 139 1003 q 309 965 277 1003 q 341 850 341 928 l 341 543 l 289 543 q 276 605 281 584 q 217 552 246 570 q 152 535 189 535 q 70 570 100 535 q 39 669 39 605 q 79 768 39 733 q 206 809 119 803 l 267 813 l 267 848 m 116 667 q 174 598 116 598 q 242 631 218 598 q 267 721 267 663 l 267 760 l 222 755 q 140 729 165 749 q 116 667 116 710 z "},"«":{"ha":644,"x_min":54,"x_max":591,"o":"m 325 599 l 176 365 l 325 130 l 253 89 l 54 355 l 54 373 l 253 640 l 325 599 m 591 599 l 443 365 l 591 130 l 519 89 l 319 355 l 319 373 l 519 640 l 591 599 z "},"¬":{"ha":578,"x_min":51,"x_max":517,"o":"m 517 170 l 436 170 l 436 448 l 51 448 l 51 532 l 517 532 l 517 170 z "},"­":{"ha":379,"x_min":40,"x_max":339,"o":"m 339 325 l 40 325 l 40 423 l 339 423 l 339 325 z "},"®":{"ha":1152,"x_min":66,"x_max":1086,"o":"m 576 1006 q 833 936 715 1006 q 1018 748 951 865 q 1086 496 1086 631 q 1045 297 1086 391 q 935 134 1004 202 q 772 26 867 66 q 572 -14 678 -14 q 370 29 467 -14 q 208 142 274 72 q 104 306 142 213 q 66 500 66 398 q 108 697 66 602 q 219 860 150 793 q 382 966 289 927 q 576 1006 476 1006 m 884 805 q 854 834 884 805 q 744 898 825 863 q 574 933 663 933 q 404 898 486 933 q 264 802 322 862 q 172 662 206 743 q 138 496 138 582 q 199 273 138 374 q 359 115 259 172 q 576 58 460 58 q 748 94 666 58 q 887 189 829 130 q 979 329 945 248 q 1013 497 1013 409 q 978 666 1013 585 q 884 805 943 747 m 397 797 l 551 797 q 765 620 765 797 q 665 458 765 502 l 688 417 q 808 193 728 342 l 703 193 l 583 433 l 492 433 l 492 193 l 397 193 l 397 797 m 492 722 l 492 505 l 526 505 q 574 512 555 505 q 644 542 619 515 q 669 616 669 569 q 635 699 669 676 q 525 722 601 722 l 492 722 z "},"¯":{"ha":612,"x_min":-5,"x_max":616,"o":"m 616 1055 l -5 1055 l -5 1135 l 616 1135 l 616 1055 z "},"°":{"ha":585,"x_min":80,"x_max":504,"o":"m 141 945 q 292 1006 203 1006 q 442 946 380 1006 q 504 794 504 886 q 443 642 504 702 q 291 583 382 583 q 140 642 201 583 q 80 792 80 701 q 141 945 80 884 m 385 890 q 292 929 348 929 q 198 889 236 929 q 161 793 161 849 q 199 698 161 736 q 292 659 238 659 q 385 698 346 659 q 423 794 423 736 q 385 890 423 852 z "},"±":{"ha":578,"x_min":51,"x_max":527,"o":"m 330 532 l 527 532 l 527 448 l 330 448 l 330 170 l 248 170 l 248 448 l 51 448 l 51 532 l 248 532 l 248 812 l 330 812 l 330 532 m 527 0 l 51 0 l 51 83 l 527 83 l 527 0 z "},"²":{"ha":433,"x_min":34,"x_max":375,"o":"m 34 397 l 34 468 q 155 613 75 518 q 255 747 234 708 q 277 840 277 787 q 254 902 277 878 q 193 926 231 926 q 82 869 136 926 q 34 928 50 909 q 199 1006 105 1006 q 320 963 276 1006 q 363 844 363 920 q 325 712 363 772 q 263 631 304 680 q 212 568 223 582 q 173 522 201 555 q 134 476 144 488 l 375 476 l 375 397 l 34 397 z "},"³":{"ha":433,"x_min":34,"x_max":376,"o":"m 115 741 l 163 741 q 247 768 218 741 q 277 841 277 796 q 253 908 277 886 q 187 930 230 930 q 77 880 132 930 q 34 941 62 901 q 195 1006 107 1006 q 314 964 270 1006 q 357 850 357 922 q 333 765 357 800 q 262 713 308 730 l 262 707 q 376 557 376 677 q 324 433 376 480 q 186 386 271 386 q 38 418 101 386 l 38 500 q 180 460 103 460 q 264 487 236 460 q 292 564 292 513 q 259 642 292 614 q 164 670 227 670 l 115 670 l 115 741 z "},"´":{"ha":761,"x_min":267,"x_max":519,"o":"m 519 1064 l 519 1051 q 440 948 500 1014 q 330 842 380 883 l 267 842 l 267 857 q 337 961 302 903 q 392 1064 372 1019 l 519 1064 z "},"µ":{"ha":629,"x_min":88,"x_max":538,"o":"m 538 0 l 454 0 q 441 101 447 63 l 435 101 q 374 16 412 46 q 293 -14 335 -14 q 232 -2 252 -14 q 186 43 213 9 q 192 -145 192 -52 l 192 -334 l 88 -334 l 88 742 l 192 742 l 192 252 q 291 77 192 77 q 401 142 366 77 q 435 352 435 207 l 435 742 l 538 742 l 538 0 z "},"¶":{"ha":682,"x_min":82,"x_max":561,"o":"m 561 -176 l 484 -176 l 484 968 l 382 968 l 382 -176 l 304 -176 l 304 379 q 250 367 281 367 q 123 450 163 367 q 82 708 82 534 q 130 969 82 882 q 277 1055 177 1055 l 561 1055 l 561 -176 z "},"·":{"ha":315,"x_min":85,"x_max":230,"o":"m 157 404 q 85 489 85 404 q 158 574 85 574 q 230 490 230 574 q 211 426 230 447 q 157 404 191 404 z "},"¸":{"ha":304,"x_min":21,"x_max":261,"o":"m 261 -191 q 217 -297 261 -260 q 90 -334 172 -334 q 21 -324 46 -334 l 21 -254 q 90 -263 52 -263 q 150 -245 128 -263 q 172 -193 172 -227 q 62 -108 172 -125 l 113 0 l 185 0 l 154 -69 q 261 -191 261 -96 z "},"¹":{"ha":433,"x_min":52,"x_max":292,"o":"m 292 397 l 209 397 l 209 724 q 214 903 209 844 q 172 865 192 882 q 94 806 151 849 l 52 862 l 220 991 l 292 991 l 292 397 z "},"º":{"ha":434,"x_min":45,"x_max":389,"o":"m 45 769 q 45 824 45 769 q 91 942 45 880 q 217 1003 136 1003 q 344 943 298 1003 q 389 769 389 882 q 345 596 389 656 q 217 535 300 535 q 90 596 134 535 q 45 769 45 657 m 217 935 q 125 770 125 935 q 147 643 125 683 q 218 603 169 603 q 288 643 267 603 q 310 769 310 682 q 288 895 310 856 q 217 935 265 935 z "},"»":{"ha":644,"x_min":54,"x_max":591,"o":"m 325 373 l 325 355 l 125 89 l 54 130 l 201 365 l 54 599 l 125 640 l 325 373 m 591 373 l 591 355 l 391 89 l 319 130 l 468 365 l 319 599 l 391 640 l 591 373 z "},"¼":{"ha":1007,"x_min":37,"x_max":924,"o":"m 277 397 l 193 397 l 193 724 q 198 903 197 890 q 182 887 198 903 q 131 846 169 874 q 79 806 93 817 l 37 862 l 205 991 l 277 991 l 277 397 m 274 0 l 187 0 l 702 991 l 789 991 l 274 0 m 541 193 l 774 599 l 853 599 l 853 204 l 924 204 l 924 131 l 853 131 l 853 1 l 770 1 l 770 131 l 541 131 l 541 193 m 770 204 l 770 384 q 773 489 772 461 q 623 204 739 409 l 770 204 z "},"½":{"ha":1007,"x_min":37,"x_max":945,"o":"m 277 397 l 194 397 l 194 724 q 199 903 194 844 q 157 865 177 882 q 79 806 136 849 l 37 862 l 205 991 l 277 991 l 277 397 m 264 0 l 176 0 l 691 991 l 779 991 l 264 0 m 604 1 l 604 71 q 725 216 646 121 q 826 351 804 311 q 847 444 847 390 q 824 506 847 481 q 763 530 801 530 q 652 473 707 530 q 604 532 620 512 q 769 609 675 609 q 890 566 846 609 q 934 448 934 523 q 895 316 934 375 q 834 234 874 283 q 782 172 793 185 q 743 125 771 158 q 705 79 715 92 l 945 79 l 945 1 l 604 1 z "},"¾":{"ha":1007,"x_min":35,"x_max":943,"o":"m 78 880 l 35 941 q 196 1006 109 1006 q 315 964 271 1006 q 359 850 359 922 q 334 765 359 800 q 262 713 309 730 l 262 707 q 377 557 377 677 q 325 433 377 480 q 187 386 272 386 q 39 418 102 386 l 39 500 q 180 460 104 460 q 265 487 237 460 q 293 563 293 513 q 260 642 293 614 q 165 670 228 670 l 115 670 l 115 741 l 163 741 q 248 768 218 741 q 277 841 277 796 q 254 908 277 886 q 188 930 231 930 q 78 880 132 930 m 728 991 l 816 991 q 300 0 383 159 l 214 0 l 728 991 m 560 193 l 793 599 l 872 599 l 872 204 l 943 204 l 943 131 l 872 131 l 872 1 l 789 1 l 789 131 l 560 131 l 560 193 m 789 204 l 789 384 q 792 489 791 461 q 642 204 758 409 l 789 204 z "},"¿":{"ha":437,"x_min":33,"x_max":416,"o":"m 255 744 q 328 659 328 744 q 255 574 328 574 q 202 595 222 574 q 183 659 183 616 q 203 723 183 701 q 255 744 222 744 m 302 459 l 302 419 q 289 307 302 345 q 250 225 276 269 q 196 142 223 182 q 163 90 170 103 q 136 -39 136 31 q 164 -144 136 -108 q 249 -181 193 -181 q 373 -138 305 -181 l 416 -217 q 235 -275 334 -275 q 85 -214 137 -275 q 33 -41 33 -153 q 42 50 33 14 q 72 124 50 86 q 140 226 93 161 q 200 328 186 290 q 214 427 214 366 l 214 459 l 302 459 z "},"À":{"ha":614,"x_min":0,"x_max":614,"o":"m 110 1293 l 238 1293 q 294 1188 258 1248 q 363 1086 330 1128 l 363 1071 l 300 1071 q 193 1174 254 1109 q 110 1281 132 1240 l 110 1293 m 241 992 l 369 992 q 614 0 410 825 l 507 0 l 430 323 l 183 323 l 107 0 l 0 0 q 241 992 199 822 m 347 684 l 325 781 q 304 897 312 838 q 278 743 294 812 q 256 642 263 675 q 230 532 248 609 q 204 422 212 454 l 408 422 l 347 684 z "},"Á":{"ha":614,"x_min":0,"x_max":614,"o":"m 498 1293 l 498 1280 q 418 1178 478 1243 q 308 1071 358 1112 l 245 1071 l 245 1086 q 315 1191 280 1133 q 370 1293 350 1249 l 498 1293 m 241 992 l 369 992 q 614 0 410 825 l 507 0 l 430 323 l 183 323 l 107 0 l 0 0 q 241 992 199 822 m 347 684 l 325 781 q 304 897 312 838 q 278 743 294 812 q 256 642 263 675 q 230 532 248 609 q 204 422 212 454 l 408 422 l 347 684 z "},"Â":{"ha":614,"x_min":0,"x_max":614,"o":"m 492 1071 l 433 1071 q 366 1139 405 1095 l 305 1207 q 176 1071 214 1105 l 119 1071 l 119 1085 q 252 1293 214 1213 l 357 1293 q 410 1201 372 1260 q 492 1085 448 1141 l 492 1071 m 241 992 l 369 992 q 614 0 410 825 l 507 0 l 430 323 l 183 323 l 107 0 l 0 0 q 241 992 199 822 m 347 684 l 325 781 q 304 897 312 838 q 278 743 294 812 q 256 642 263 675 q 230 532 248 609 q 204 422 212 454 l 408 422 l 347 684 z "},"Ã":{"ha":614,"x_min":0,"x_max":614,"o":"m 393 1072 q 344 1084 370 1072 q 300 1112 318 1097 q 225 1154 250 1154 q 170 1070 182 1154 l 104 1070 q 144 1192 113 1149 q 229 1234 176 1234 q 290 1213 258 1234 q 349 1173 321 1193 q 398 1152 377 1152 q 431 1173 419 1152 q 450 1235 442 1193 l 515 1235 q 476 1114 508 1156 q 393 1072 444 1072 m 241 992 l 369 992 q 614 0 410 825 l 507 0 l 430 323 l 183 323 l 107 0 l 0 0 q 241 992 199 822 m 347 684 l 325 781 q 304 897 312 838 q 278 743 294 812 q 256 642 263 675 q 230 532 248 609 q 204 422 212 454 l 408 422 l 347 684 z "},"Ä":{"ha":614,"x_min":0,"x_max":614,"o":"m 152 1223 q 160 1231 152 1223 q 194 1240 168 1240 q 236 1223 220 1240 q 252 1174 252 1206 q 236 1125 252 1143 q 194 1107 220 1107 q 152 1125 168 1107 q 136 1174 136 1142 q 152 1223 136 1206 m 379 1223 q 387 1231 379 1223 q 421 1240 395 1240 q 463 1223 447 1240 q 479 1174 479 1206 q 464 1125 479 1142 q 422 1107 448 1107 q 380 1125 396 1107 q 363 1174 363 1143 q 379 1223 363 1206 m 241 992 l 369 992 q 614 0 410 825 l 507 0 l 430 323 l 183 323 l 107 0 l 0 0 q 241 992 199 822 m 347 684 l 325 781 q 304 897 312 838 q 278 743 294 812 q 256 642 263 675 q 230 532 248 609 q 204 422 212 454 l 408 422 l 347 684 z "},"Å":{"ha":614,"x_min":0,"x_max":614,"o":"m 161 1071 q 201 1171 161 1133 q 305 1208 241 1208 q 411 1170 370 1208 q 452 1073 452 1133 q 433 998 452 1029 q 380 949 414 966 q 614 0 515 397 l 507 0 l 430 323 l 183 323 l 107 0 l 0 0 q 231 950 203 836 q 161 1071 161 984 m 383 1070 q 383 1088 383 1070 q 362 1125 383 1105 q 307 1146 342 1146 q 250 1125 272 1146 q 229 1070 229 1104 q 249 1015 229 1036 q 304 995 269 995 q 362 1016 340 995 q 383 1070 383 1036 m 408 422 l 347 684 l 325 781 q 304 897 312 838 q 278 743 294 812 q 256 642 263 675 q 230 532 248 609 q 204 422 212 454 l 408 422 z "},"Æ":{"ha":843,"x_min":0,"x_max":779,"o":"m 202 323 l 108 0 l 0 0 l 302 991 l 779 991 l 779 895 l 496 895 l 496 566 l 761 566 l 761 470 l 496 470 l 496 96 l 779 96 l 779 0 l 391 0 l 391 323 l 202 323 m 391 422 l 391 894 l 370 894 q 291 626 334 772 q 231 422 249 480 l 391 422 z "},"Ç":{"ha":603,"x_min":69,"x_max":571,"o":"m 397 910 q 236 799 295 910 q 178 495 178 688 q 237 192 178 302 q 402 82 297 82 q 548 117 481 82 l 548 22 q 399 -14 490 -13 l 374 -69 q 481 -191 481 -96 q 437 -297 481 -260 q 310 -334 393 -334 q 241 -324 267 -334 l 241 -254 q 311 -263 273 -263 q 371 -245 349 -263 q 393 -193 393 -227 q 282 -108 393 -125 l 330 -7 q 138 151 208 21 q 69 488 69 280 q 155 868 69 730 q 395 1006 241 1006 q 571 956 490 1006 l 530 867 q 397 910 466 910 z "},"È":{"ha":553,"x_min":102,"x_max":490,"o":"m 111 1293 l 239 1293 q 295 1188 258 1248 q 364 1086 331 1128 l 364 1071 l 300 1071 q 193 1174 254 1109 q 111 1281 133 1240 l 111 1293 m 490 896 l 207 896 l 207 566 l 473 566 l 473 471 l 207 471 l 207 96 l 490 96 l 490 0 l 102 0 l 102 991 l 490 991 l 490 896 z "},"É":{"ha":553,"x_min":102,"x_max":490,"o":"m 475 1293 l 475 1280 q 396 1178 456 1243 q 286 1071 336 1112 l 222 1071 l 222 1086 q 293 1191 258 1133 q 348 1293 328 1249 l 475 1293 m 490 896 l 207 896 l 207 566 l 473 566 l 473 471 l 207 471 l 207 96 l 490 96 l 490 0 l 102 0 l 102 991 l 490 991 l 490 896 z "},"Ê":{"ha":553,"x_min":102,"x_max":490,"o":"m 478 1071 l 420 1071 q 353 1139 391 1095 l 292 1207 q 163 1071 201 1105 l 105 1071 l 105 1085 q 239 1293 201 1213 l 344 1293 q 396 1201 358 1260 q 478 1085 434 1141 l 478 1071 m 490 896 l 207 896 l 207 566 l 473 566 l 473 471 l 207 471 l 207 96 l 490 96 l 490 0 l 102 0 l 102 991 l 490 991 l 490 896 z "},"Ë":{"ha":553,"x_min":102,"x_max":490,"o":"m 138 1223 q 146 1231 138 1223 q 180 1240 154 1240 q 221 1223 205 1240 q 237 1174 237 1206 q 221 1125 237 1143 q 180 1107 205 1107 q 138 1125 154 1107 q 121 1174 121 1142 q 138 1223 121 1206 m 365 1223 q 373 1231 365 1223 q 407 1240 381 1240 q 449 1223 433 1240 q 465 1174 465 1206 q 449 1125 465 1142 q 408 1107 433 1107 q 366 1125 382 1107 q 349 1174 349 1143 q 365 1223 349 1206 m 490 896 l 207 896 l 207 566 l 473 566 l 473 471 l 207 471 l 207 96 l 490 96 l 490 0 l 102 0 l 102 991 l 490 991 l 490 896 z "},"Ì":{"ha":328,"x_min":-26,"x_max":227,"o":"m -26 1293 l 102 1293 q 158 1188 121 1248 q 227 1086 194 1128 l 227 1071 l 163 1071 q 56 1174 117 1109 q -26 1281 -4 1240 l -26 1293 m 214 0 l 113 0 l 113 991 l 214 991 l 214 0 z "},"Í":{"ha":328,"x_min":107,"x_max":360,"o":"m 360 1293 l 360 1280 q 280 1178 340 1243 q 170 1071 220 1112 l 107 1071 l 107 1086 q 177 1191 142 1133 q 233 1293 212 1249 l 360 1293 m 214 0 l 113 0 l 113 991 l 214 991 l 214 0 z "},"Î":{"ha":328,"x_min":-23,"x_max":350,"o":"m 350 1071 l 292 1071 q 224 1139 263 1095 l 163 1207 q 35 1071 73 1105 l -23 1071 l -23 1085 q 111 1293 73 1213 l 216 1293 q 268 1201 230 1260 q 350 1085 306 1141 l 350 1071 m 214 0 l 113 0 l 113 991 l 214 991 l 214 0 z "},"Ï":{"ha":328,"x_min":-7,"x_max":336,"o":"m 9 1223 q 17 1231 9 1223 q 51 1240 25 1240 q 93 1223 77 1240 q 109 1174 109 1206 q 93 1125 109 1143 q 51 1107 77 1107 q 9 1125 25 1107 q -7 1174 -7 1142 q 9 1223 -7 1206 m 236 1223 q 244 1231 236 1223 q 278 1240 252 1240 q 320 1223 304 1240 q 336 1174 336 1206 q 320 1125 336 1142 q 279 1107 304 1107 q 237 1125 253 1107 q 220 1174 220 1143 q 236 1223 220 1206 m 214 0 l 113 0 l 113 991 l 214 991 l 214 0 z "},"Ð":{"ha":708,"x_min":27,"x_max":639,"o":"m 101 991 l 310 991 q 554 866 469 991 q 639 498 639 741 q 553 127 639 255 q 300 0 468 0 l 101 0 l 101 453 l 27 453 l 27 547 l 101 547 l 101 991 m 207 898 l 207 547 l 350 547 l 350 453 l 207 453 l 207 94 l 297 94 q 530 500 530 94 q 473 797 530 696 q 306 898 416 898 l 207 898 z "},"Ñ":{"ha":782,"x_min":102,"x_max":681,"o":"m 485 1072 q 436 1084 462 1072 q 392 1112 410 1097 q 317 1154 342 1154 q 262 1070 275 1154 l 197 1070 q 236 1192 205 1149 q 321 1234 268 1234 q 382 1213 350 1234 q 441 1173 414 1193 q 490 1152 469 1152 q 523 1173 511 1152 q 542 1235 534 1193 l 607 1235 q 568 1114 600 1156 q 485 1072 536 1072 m 681 0 l 549 0 l 197 833 l 191 833 q 201 655 201 746 l 201 0 l 102 0 l 102 991 l 234 991 l 584 168 l 589 168 q 581 349 581 271 l 581 991 l 681 991 l 681 0 z "},"Ò":{"ha":757,"x_min":69,"x_max":687,"o":"m 183 1293 l 311 1293 q 367 1188 331 1248 q 437 1086 404 1128 l 437 1071 l 373 1071 q 266 1174 327 1109 q 183 1281 205 1240 l 183 1293 m 380 1006 q 608 873 528 1006 q 687 496 687 741 q 607 119 687 252 q 377 -14 528 -14 q 148 119 227 -14 q 69 498 69 252 q 380 1006 69 1006 m 380 909 q 229 805 279 909 q 178 496 178 700 q 229 188 178 293 q 378 83 279 83 q 528 187 477 83 q 578 497 578 291 q 380 909 578 909 z "},"Ó":{"ha":757,"x_min":69,"x_max":687,"o":"m 568 1293 l 568 1280 q 488 1178 548 1243 q 378 1071 428 1112 l 315 1071 l 315 1086 q 385 1191 350 1133 q 440 1293 420 1249 l 568 1293 m 380 1006 q 608 873 528 1006 q 687 496 687 741 q 607 119 687 252 q 377 -14 528 -14 q 148 119 227 -14 q 69 498 69 252 q 380 1006 69 1006 m 380 909 q 229 805 279 909 q 178 496 178 700 q 229 188 178 293 q 378 83 279 83 q 528 187 477 83 q 578 497 578 291 q 380 909 578 909 z "},"Ô":{"ha":757,"x_min":69,"x_max":687,"o":"m 564 1071 l 505 1071 q 438 1139 477 1095 l 377 1207 q 248 1071 286 1105 l 191 1071 l 191 1085 q 324 1293 286 1213 l 429 1293 q 481 1201 444 1260 q 564 1085 519 1141 l 564 1071 m 380 1006 q 608 873 528 1006 q 687 496 687 741 q 607 119 687 252 q 377 -14 528 -14 q 148 119 227 -14 q 69 498 69 252 q 380 1006 69 1006 m 380 909 q 229 805 279 909 q 178 496 178 700 q 229 188 178 293 q 378 83 279 83 q 528 187 477 83 q 578 497 578 291 q 380 909 578 909 z "},"Õ":{"ha":757,"x_min":69,"x_max":687,"o":"m 468 1072 q 419 1084 445 1072 q 375 1112 393 1097 q 300 1154 326 1154 q 245 1070 258 1154 l 180 1070 q 219 1192 188 1149 q 304 1234 251 1234 q 365 1213 333 1234 q 425 1173 397 1193 q 473 1152 452 1152 q 506 1173 494 1152 q 525 1235 517 1193 l 590 1235 q 551 1114 583 1156 q 468 1072 519 1072 m 380 1006 q 608 873 528 1006 q 687 496 687 741 q 607 119 687 252 q 377 -14 528 -14 q 148 119 227 -14 q 69 498 69 252 q 380 1006 69 1006 m 380 909 q 229 805 279 909 q 178 496 178 700 q 229 188 178 293 q 378 83 279 83 q 528 187 477 83 q 578 497 578 291 q 380 909 578 909 z "},"Ö":{"ha":757,"x_min":69,"x_max":687,"o":"m 227 1223 q 235 1231 227 1223 q 269 1240 243 1240 q 310 1223 294 1240 q 326 1174 326 1206 q 310 1125 326 1143 q 269 1107 294 1107 q 227 1125 243 1107 q 210 1174 210 1142 q 227 1223 210 1206 m 454 1223 q 462 1231 454 1223 q 496 1240 470 1240 q 538 1223 522 1240 q 554 1174 554 1206 q 538 1125 554 1142 q 496 1107 522 1107 q 454 1125 471 1107 q 438 1174 438 1143 q 454 1223 438 1206 m 380 1006 q 608 873 528 1006 q 687 496 687 741 q 607 119 687 252 q 377 -14 528 -14 q 148 119 227 -14 q 69 498 69 252 q 380 1006 69 1006 m 380 909 q 229 805 279 909 q 178 496 178 700 q 229 188 178 293 q 378 83 279 83 q 528 187 477 83 q 578 497 578 291 q 380 909 578 909 z "},"×":{"ha":578,"x_min":47,"x_max":529,"o":"m 288 551 l 468 748 l 529 697 q 341 490 404 559 l 526 284 q 467 233 524 281 l 288 429 l 107 231 q 47 283 55 277 l 235 490 q 48 695 140 594 l 109 746 l 288 551 z "},"Ø":{"ha":757,"x_min":69,"x_max":693,"o":"m 614 861 q 687 492 687 732 q 607 119 687 252 q 378 -14 528 -14 q 206 51 275 -14 l 147 -65 l 73 -31 q 149 118 98 18 q 69 498 69 250 q 380 1006 69 1006 q 559 931 484 1006 l 618 1049 q 693 1014 620 1048 l 614 861 m 380 909 q 229 805 279 909 q 178 497 178 700 q 209 237 178 332 l 512 836 q 380 909 465 909 m 378 83 q 577 501 577 83 q 553 736 577 643 l 254 144 q 378 83 299 83 z "},"Ù":{"ha":718,"x_min":94,"x_max":623,"o":"m 173 1293 l 301 1293 q 357 1188 321 1248 q 427 1086 393 1128 l 427 1071 l 363 1071 q 256 1174 317 1109 q 173 1281 195 1240 l 173 1293 m 623 991 l 623 332 q 556 74 623 161 q 360 -14 490 -14 q 162 75 230 -14 q 94 332 94 164 l 94 991 l 200 991 l 200 322 q 241 144 200 205 q 360 83 283 83 q 477 144 437 83 q 517 323 517 205 l 517 991 l 623 991 z "},"Ú":{"ha":718,"x_min":94,"x_max":623,"o":"m 544 1293 l 544 1280 q 464 1178 524 1243 q 354 1071 404 1112 l 291 1071 l 291 1086 q 361 1191 326 1133 q 416 1293 396 1249 l 544 1293 m 623 991 l 623 332 q 556 74 623 161 q 360 -14 490 -14 q 162 75 230 -14 q 94 332 94 164 l 94 991 l 200 991 l 200 322 q 241 144 200 205 q 360 83 283 83 q 477 144 437 83 q 517 323 517 205 l 517 991 l 623 991 z "},"Û":{"ha":718,"x_min":94,"x_max":623,"o":"m 545 1071 l 487 1071 q 420 1139 458 1095 l 359 1207 q 230 1071 268 1105 l 172 1071 l 172 1085 q 306 1293 268 1213 l 411 1293 q 463 1201 425 1260 q 545 1085 501 1141 l 545 1071 m 623 991 l 623 332 q 556 74 623 161 q 360 -14 490 -14 q 162 75 230 -14 q 94 332 94 164 l 94 991 l 200 991 l 200 322 q 241 144 200 205 q 360 83 283 83 q 477 144 437 83 q 517 323 517 205 l 517 991 l 623 991 z "},"Ü":{"ha":718,"x_min":94,"x_max":623,"o":"m 203 1223 q 212 1231 203 1223 q 245 1240 220 1240 q 287 1223 271 1240 q 303 1174 303 1206 q 287 1125 303 1143 q 245 1107 271 1107 q 203 1125 220 1107 q 187 1174 187 1142 q 203 1223 187 1206 m 431 1223 q 439 1231 431 1223 q 473 1240 447 1240 q 515 1223 498 1240 q 531 1174 531 1206 q 515 1125 531 1142 q 473 1107 499 1107 q 431 1125 448 1107 q 415 1174 415 1143 q 431 1223 415 1206 m 623 991 l 623 332 q 556 74 623 161 q 360 -14 490 -14 q 162 75 230 -14 q 94 332 94 164 l 94 991 l 200 991 l 200 322 q 241 144 200 205 q 360 83 283 83 q 477 144 437 83 q 517 323 517 205 l 517 991 l 623 991 z "},"Ý":{"ha":527,"x_min":0,"x_max":527,"o":"m 454 1293 l 454 1280 q 374 1178 434 1243 q 264 1071 314 1112 l 201 1071 l 201 1086 q 271 1191 236 1133 q 326 1293 306 1249 l 454 1293 m 315 0 l 210 0 l 210 388 l 0 991 l 111 991 l 264 519 l 416 991 l 527 991 l 315 391 l 315 0 z "},"Þ":{"ha":602,"x_min":101,"x_max":557,"o":"m 207 817 l 275 817 q 488 746 419 817 q 557 526 557 676 q 485 297 557 376 q 271 218 412 218 l 207 218 l 207 0 l 101 0 l 101 991 l 207 991 l 207 817 m 207 720 l 207 313 l 263 313 q 407 361 363 313 q 451 517 451 409 q 408 673 451 625 q 271 720 365 720 l 207 720 z "},"ß":{"ha":622,"x_min":91,"x_max":580,"o":"m 91 0 l 91 759 q 93 829 91 795 q 157 1001 99 940 q 311 1063 214 1063 q 461 1010 408 1063 q 515 867 515 957 q 450 697 515 777 l 444 691 q 385 582 385 618 q 396 521 385 545 q 450 449 408 496 l 482 418 q 556 319 533 367 q 580 210 579 272 q 526 46 580 105 q 381 -14 471 -14 q 245 22 290 -14 l 245 118 q 362 75 307 75 q 446 108 418 75 q 475 203 475 142 q 458 280 475 246 q 385 372 441 315 q 306 475 329 430 q 283 570 283 519 q 358 722 283 648 q 398 790 386 760 q 410 856 410 821 q 310 972 410 972 q 223 930 253 972 q 193 807 193 888 l 193 0 l 91 0 z "},"à":{"ha":570,"x_min":47,"x_max":483,"o":"m 106 1064 l 235 1064 q 291 959 254 1019 q 360 857 327 899 l 360 842 l 296 842 q 189 945 250 880 q 106 1052 129 1010 l 106 1064 m 138 626 l 99 701 q 287 757 187 757 q 435 695 387 757 q 483 503 483 633 l 483 0 l 404 0 l 387 103 l 383 103 q 220 -12 328 -12 q 93 45 138 -12 q 47 208 47 102 q 111 375 47 315 q 294 441 175 436 l 380 446 l 380 504 q 356 631 380 591 q 271 671 332 671 q 138 626 211 671 m 380 298 l 380 370 q 311 367 357 370 q 193 322 231 363 q 155 204 155 282 q 248 69 155 69 q 345 130 310 69 q 380 298 380 191 z "},"á":{"ha":570,"x_min":47,"x_max":483,"o":"m 466 1064 l 466 1051 q 386 948 446 1014 q 276 842 326 883 l 213 842 l 213 857 q 283 961 248 903 q 338 1064 318 1019 l 466 1064 m 138 626 l 99 701 q 287 757 187 757 q 435 695 387 757 q 483 503 483 633 l 483 0 l 404 0 l 387 103 l 383 103 q 220 -12 328 -12 q 93 45 138 -12 q 47 208 47 102 q 111 375 47 315 q 294 441 175 436 l 380 446 l 380 504 q 356 631 380 591 q 271 671 332 671 q 138 626 211 671 m 380 298 l 380 370 q 311 367 357 370 q 193 322 231 363 q 155 204 155 282 q 248 69 155 69 q 345 130 310 69 q 380 298 380 191 z "},"â":{"ha":570,"x_min":47,"x_max":483,"o":"m 472 842 l 414 842 q 347 910 385 867 l 286 979 q 157 842 195 876 l 99 842 l 99 857 q 233 1065 195 985 l 338 1065 q 390 972 352 1031 q 472 857 428 913 l 472 842 m 138 626 l 99 701 q 287 757 187 757 q 435 695 387 757 q 483 503 483 633 l 483 0 l 404 0 l 387 103 l 383 103 q 220 -12 328 -12 q 93 45 138 -12 q 47 208 47 102 q 111 375 47 315 q 294 441 175 436 l 380 446 l 380 504 q 356 631 380 591 q 271 671 332 671 q 138 626 211 671 m 380 298 l 380 370 q 311 367 357 370 q 193 322 231 363 q 155 204 155 282 q 248 69 155 69 q 345 130 310 69 q 380 298 380 191 z "},"ã":{"ha":570,"x_min":47,"x_max":499,"o":"m 377 842 q 328 855 354 842 q 284 883 302 868 q 210 924 235 924 q 154 841 167 924 l 89 841 q 129 962 97 920 q 213 1004 160 1004 q 274 984 242 1004 q 334 943 306 964 q 382 923 361 923 q 415 943 404 923 q 434 1006 427 964 l 499 1006 q 460 884 492 926 q 377 842 429 842 m 138 626 l 99 701 q 287 757 187 757 q 435 695 387 757 q 483 503 483 633 l 483 0 l 404 0 l 387 103 l 383 103 q 220 -12 328 -12 q 93 45 138 -12 q 47 208 47 102 q 111 375 47 315 q 294 441 175 436 l 380 446 l 380 504 q 356 631 380 591 q 271 671 332 671 q 138 626 211 671 m 380 298 l 380 370 q 311 367 357 370 q 193 322 231 363 q 155 204 155 282 q 248 69 155 69 q 345 130 310 69 q 380 298 380 191 z "},"ä":{"ha":570,"x_min":47,"x_max":483,"o":"m 128 994 q 136 1002 128 994 q 170 1010 144 1010 q 212 994 196 1010 q 228 945 228 977 q 212 896 228 913 q 170 878 196 878 q 128 896 144 878 q 112 945 112 913 q 128 994 112 977 m 356 994 q 364 1002 356 994 q 397 1010 372 1010 q 439 994 423 1010 q 456 945 456 977 q 440 896 456 913 q 398 878 424 878 q 356 896 372 878 q 340 945 340 913 q 356 994 340 977 m 138 626 l 99 701 q 287 757 187 757 q 435 695 387 757 q 483 503 483 633 l 483 0 l 404 0 l 387 103 l 383 103 q 220 -12 328 -12 q 93 45 138 -12 q 47 208 47 102 q 111 375 47 315 q 294 441 175 436 l 380 446 l 380 504 q 356 631 380 591 q 271 671 332 671 q 138 626 211 671 m 380 298 l 380 370 q 311 367 357 370 q 193 322 231 363 q 155 204 155 282 q 248 69 155 69 q 345 130 310 69 q 380 298 380 191 z "},"å":{"ha":570,"x_min":47,"x_max":483,"o":"m 140 982 q 140 1014 140 982 q 180 1082 140 1045 q 284 1120 220 1120 q 390 1082 349 1120 q 431 983 431 1044 q 391 883 431 921 q 285 846 351 846 q 179 882 219 846 q 140 982 140 919 m 362 982 q 362 999 362 982 q 341 1037 362 1017 q 286 1058 321 1058 q 229 1037 251 1058 q 208 982 208 1016 q 228 927 208 947 q 283 907 248 907 q 341 927 319 907 q 362 982 362 948 m 138 626 l 99 701 q 287 757 187 757 q 435 695 387 757 q 483 503 483 633 l 483 0 l 404 0 l 387 103 l 383 103 q 220 -12 328 -12 q 93 45 138 -12 q 47 208 47 102 q 111 375 47 315 q 294 441 175 436 l 380 446 l 380 504 q 356 631 380 591 q 271 671 332 671 q 138 626 211 671 m 380 298 l 380 370 q 311 367 357 370 q 193 322 231 363 q 155 204 155 282 q 248 69 155 69 q 345 130 310 69 q 380 298 380 191 z "},"æ":{"ha":896,"x_min":47,"x_max":838,"o":"m 138 626 l 99 701 q 281 755 187 755 q 448 658 400 755 q 613 756 508 756 q 778 668 719 756 q 838 428 838 580 l 838 356 l 484 356 q 651 73 490 73 q 811 122 733 73 l 811 33 q 641 -14 736 -14 q 511 25 567 -14 q 425 136 456 64 q 343 22 392 58 q 225 -14 294 -14 q 94 44 141 -14 q 47 209 47 102 q 111 375 47 315 q 294 441 175 436 l 380 446 l 380 504 q 355 630 380 588 q 276 671 330 671 q 138 626 211 671 m 737 438 q 704 607 737 545 q 615 670 671 670 q 486 438 499 670 l 737 438 m 380 298 l 380 370 q 311 367 357 370 q 193 324 231 363 q 155 204 155 285 q 248 69 155 69 q 345 130 310 69 q 380 298 380 191 z "},"ç":{"ha":458,"x_min":60,"x_max":433,"o":"m 310 665 q 165 368 165 665 q 202 149 165 219 q 314 78 238 78 q 427 106 364 78 l 427 18 q 307 -14 370 -12 l 281 -69 q 389 -191 389 -96 q 344 -297 389 -260 q 217 -334 300 -334 q 149 -324 174 -334 l 149 -254 q 217 -263 179 -263 q 278 -245 256 -263 q 300 -193 300 -227 q 189 -108 300 -125 l 237 -5 q 60 367 60 42 q 300 756 60 756 q 433 724 377 756 l 399 640 q 310 665 351 665 z "},"è":{"ha":576,"x_min":60,"x_max":517,"o":"m 122 1064 l 250 1064 q 306 959 270 1019 q 376 857 342 899 l 376 842 l 312 842 q 205 945 266 880 q 122 1052 144 1010 l 122 1064 m 323 -14 q 129 86 197 -14 q 60 370 60 185 q 121 655 60 554 q 298 756 183 756 q 458 668 399 756 q 517 428 517 579 l 517 356 l 164 356 q 334 75 168 75 q 491 123 411 75 l 491 33 q 323 -14 415 -14 m 416 438 q 383 608 416 545 q 294 671 351 671 q 166 438 177 671 l 416 438 z "},"é":{"ha":576,"x_min":60,"x_max":517,"o":"m 487 1064 l 487 1051 q 407 948 467 1014 q 297 842 347 883 l 234 842 l 234 857 q 304 961 269 903 q 359 1064 339 1019 l 487 1064 m 323 -14 q 129 86 197 -14 q 60 370 60 185 q 121 655 60 554 q 298 756 183 756 q 458 668 399 756 q 517 428 517 579 l 517 356 l 164 356 q 334 75 168 75 q 491 123 411 75 l 491 33 q 323 -14 415 -14 m 416 438 q 383 608 416 545 q 294 671 351 671 q 166 438 177 671 l 416 438 z "},"ê":{"ha":576,"x_min":60,"x_max":517,"o":"m 483 842 l 425 842 q 357 909 396 866 l 296 978 q 168 842 205 876 l 110 842 l 110 856 q 243 1064 205 984 l 349 1064 q 401 971 363 1031 q 483 856 439 912 l 483 842 m 323 -14 q 129 86 197 -14 q 60 370 60 185 q 121 655 60 554 q 298 756 183 756 q 458 668 399 756 q 517 428 517 579 l 517 356 l 164 356 q 334 75 168 75 q 491 123 411 75 l 491 33 q 323 -14 415 -14 m 416 438 q 383 608 416 545 q 294 671 351 671 q 166 438 177 671 l 416 438 z "},"ë":{"ha":576,"x_min":60,"x_max":517,"o":"m 140 994 q 149 1002 140 994 q 182 1010 157 1010 q 224 994 208 1010 q 240 945 240 977 q 224 896 240 913 q 182 878 208 878 q 140 896 157 878 q 124 945 124 913 q 140 994 124 977 m 368 994 q 376 1002 368 994 q 410 1010 384 1010 q 452 994 435 1010 q 468 945 468 977 q 452 896 468 913 q 410 878 436 878 q 368 896 385 878 q 352 945 352 913 q 368 994 352 977 m 323 -14 q 129 86 197 -14 q 60 370 60 185 q 121 655 60 554 q 298 756 183 756 q 458 668 399 756 q 517 428 517 579 l 517 356 l 164 356 q 334 75 168 75 q 491 123 411 75 l 491 33 q 323 -14 415 -14 m 416 438 q 383 608 416 545 q 294 671 351 671 q 166 438 177 671 l 416 438 z "},"ì":{"ha":286,"x_min":-39,"x_max":214,"o":"m -39 1064 l 89 1064 q 145 959 109 1019 q 214 857 181 899 l 214 842 l 151 842 q 43 945 104 880 q -39 1052 -17 1010 l -39 1064 m 195 0 l 92 0 l 92 743 l 195 743 l 195 0 z "},"í":{"ha":286,"x_min":77,"x_max":330,"o":"m 330 1064 l 330 1051 q 250 948 310 1014 q 140 842 190 883 l 77 842 l 77 857 q 147 961 112 903 q 202 1064 182 1019 l 330 1064 m 195 0 l 92 0 l 92 743 l 195 743 l 195 0 z "},"î":{"ha":286,"x_min":-44,"x_max":329,"o":"m 329 842 l 271 842 q 203 909 242 866 l 142 978 q 14 842 52 876 l -44 842 l -44 856 q 90 1064 52 984 l 195 1064 q 247 971 209 1031 q 329 856 285 912 l 329 842 m 195 0 l 92 0 l 92 743 l 195 743 l 195 0 z "},"ï":{"ha":286,"x_min":-28,"x_max":316,"o":"m -12 994 q -3 1002 -12 994 q 31 1010 5 1010 q 72 994 56 1010 q 88 945 88 977 q 72 896 88 913 q 31 878 56 878 q -12 896 5 878 q -28 945 -28 913 q -12 994 -28 977 m 216 994 q 224 1002 216 994 q 258 1010 232 1010 q 300 994 283 1010 q 316 945 316 977 q 300 896 316 913 q 258 878 284 878 q 216 896 233 878 q 200 945 200 913 q 216 994 200 977 m 195 0 l 92 0 l 92 743 l 195 743 l 195 0 z "},"ð":{"ha":615,"x_min":59,"x_max":556,"o":"m 157 995 l 199 1058 q 315 975 264 1021 q 447 1057 420 1040 l 486 995 l 369 923 q 556 361 556 715 q 492 82 556 178 q 304 -14 427 -14 q 126 79 193 -14 q 59 326 59 171 q 118 568 59 481 q 287 655 178 655 q 436 573 382 655 q 442 574 440 573 q 294 876 408 745 l 165 798 l 126 860 l 241 930 q 157 995 205 962 m 310 567 q 163 317 163 567 q 202 141 163 206 q 311 76 240 76 q 417 140 382 76 q 452 338 452 205 q 412 503 452 439 q 310 567 372 567 z "},"ñ":{"ha":627,"x_min":91,"x_max":541,"o":"m 405 842 q 356 855 382 842 q 312 883 330 868 q 237 924 262 924 q 182 841 195 924 l 117 841 q 156 962 125 920 q 241 1004 188 1004 q 302 984 270 1004 q 361 943 334 964 q 410 923 389 923 q 443 943 431 923 q 462 1006 454 964 l 527 1006 q 488 884 520 926 q 405 842 456 842 m 174 742 l 185 642 l 193 642 q 260 726 216 696 q 358 756 304 756 q 495 694 450 756 q 541 503 541 632 l 541 0 l 437 0 l 437 488 q 338 666 437 666 q 224 592 255 666 q 193 336 193 517 l 193 0 l 91 0 l 91 742 l 174 742 z "},"ò":{"ha":612,"x_min":59,"x_max":553,"o":"m 129 1064 l 257 1064 q 313 959 277 1019 q 382 857 349 899 l 382 842 l 319 842 q 212 945 273 880 q 129 1052 151 1010 l 129 1064 m 59 373 q 59 465 59 373 q 123 657 59 557 q 304 756 187 756 q 488 654 422 756 q 553 370 553 552 q 488 87 553 187 q 306 -14 423 -14 q 124 87 189 -14 q 59 373 59 188 m 306 665 q 198 593 232 665 q 165 373 165 521 q 199 152 165 225 q 306 78 233 78 q 447 371 447 78 q 306 665 447 665 z "},"ó":{"ha":612,"x_min":59,"x_max":553,"o":"m 490 1064 l 490 1051 q 410 948 470 1014 q 300 842 350 883 l 237 842 l 237 857 q 307 961 272 903 q 362 1064 342 1019 l 490 1064 m 59 373 q 59 465 59 373 q 123 657 59 557 q 304 756 187 756 q 488 654 422 756 q 553 370 553 552 q 488 87 553 187 q 306 -14 423 -14 q 124 87 189 -14 q 59 373 59 188 m 306 665 q 198 593 232 665 q 165 373 165 521 q 199 152 165 225 q 306 78 233 78 q 447 371 447 78 q 306 665 447 665 z "},"ô":{"ha":612,"x_min":59,"x_max":553,"o":"m 494 842 l 435 842 q 368 909 407 866 l 307 978 q 178 842 216 876 l 121 842 l 121 856 q 254 1064 216 984 l 359 1064 q 412 971 374 1031 q 494 856 450 912 l 494 842 m 59 373 q 59 465 59 373 q 123 657 59 557 q 304 756 187 756 q 488 654 422 756 q 553 370 553 552 q 488 87 553 187 q 306 -14 423 -14 q 124 87 189 -14 q 59 373 59 188 m 306 665 q 198 593 232 665 q 165 373 165 521 q 199 152 165 225 q 306 78 233 78 q 447 371 447 78 q 306 665 447 665 z "},"õ":{"ha":612,"x_min":59,"x_max":553,"o":"m 392 842 q 343 855 369 842 q 299 883 317 868 q 224 924 250 924 q 169 841 182 924 l 104 841 q 143 962 112 920 q 228 1004 175 1004 q 289 984 257 1004 q 349 943 321 964 q 397 923 376 923 q 430 943 418 923 q 449 1006 441 964 l 514 1006 q 475 884 507 926 q 392 842 444 842 m 59 373 q 59 465 59 373 q 123 657 59 557 q 304 756 187 756 q 488 654 422 756 q 553 370 553 552 q 488 87 553 187 q 306 -14 423 -14 q 124 87 189 -14 q 59 373 59 188 m 306 665 q 198 593 232 665 q 165 373 165 521 q 199 152 165 225 q 306 78 233 78 q 447 371 447 78 q 306 665 447 665 z "},"ö":{"ha":612,"x_min":59,"x_max":553,"o":"m 151 994 q 159 1002 151 994 q 193 1010 168 1010 q 235 994 219 1010 q 251 945 251 977 q 235 896 251 913 q 193 878 219 878 q 151 896 168 878 q 135 945 135 913 q 151 994 135 977 m 379 994 q 387 1002 379 994 q 420 1010 395 1010 q 463 994 446 1010 q 479 945 479 977 q 463 896 479 913 q 421 878 447 878 q 379 896 395 878 q 363 945 363 913 q 379 994 363 977 m 59 373 q 59 465 59 373 q 123 657 59 557 q 304 756 187 756 q 488 654 422 756 q 553 370 553 552 q 488 87 553 187 q 306 -14 423 -14 q 124 87 189 -14 q 59 373 59 188 m 306 665 q 198 593 232 665 q 165 373 165 521 q 199 152 165 225 q 306 78 233 78 q 447 371 447 78 q 306 665 447 665 z "},"÷":{"ha":578,"x_min":50,"x_max":526,"o":"m 288 646 q 225 726 225 646 q 288 807 225 807 q 351 726 351 807 q 334 666 351 686 q 288 646 317 646 m 526 448 l 50 448 l 50 532 l 526 532 l 526 448 m 288 172 q 225 252 225 172 q 288 333 225 333 q 351 253 351 333 q 334 192 351 213 q 288 172 317 172 z "},"ø":{"ha":612,"x_min":57,"x_max":555,"o":"m 184 26 q 127 -86 178 16 l 57 -50 q 125 85 115 63 q 59 373 59 188 q 123 657 59 558 q 307 756 186 756 q 436 708 382 756 l 486 807 q 555 772 497 801 l 493 645 q 553 365 553 544 q 489 86 553 186 q 304 -14 424 -14 q 184 26 233 -14 m 306 665 q 197 592 232 665 q 163 372 163 519 q 180 198 163 282 q 393 622 275 386 q 306 665 359 665 m 306 78 q 413 153 377 78 q 450 372 450 227 q 434 528 449 466 l 227 111 q 306 78 255 78 z "},"ù":{"ha":627,"x_min":87,"x_max":536,"o":"m 125 1064 l 253 1064 q 309 959 273 1019 q 378 857 345 899 l 378 842 l 315 842 q 208 945 269 880 q 125 1052 147 1010 l 125 1064 m 536 0 l 453 0 q 440 101 448 38 l 433 101 q 366 17 409 47 q 269 -14 322 -14 q 132 52 176 -14 q 87 258 87 117 l 87 742 l 190 742 l 190 272 q 214 124 190 171 q 289 77 237 77 q 399 142 363 77 q 434 352 434 207 l 434 742 l 536 742 l 536 0 z "},"ú":{"ha":627,"x_min":87,"x_max":536,"o":"m 498 1064 l 498 1051 q 418 948 478 1014 q 308 842 358 883 l 245 842 l 245 857 q 315 961 280 903 q 370 1064 350 1019 l 498 1064 m 536 0 l 453 0 q 440 101 448 38 l 433 101 q 366 17 409 47 q 269 -14 322 -14 q 132 52 176 -14 q 87 258 87 117 l 87 742 l 190 742 l 190 272 q 214 124 190 171 q 289 77 237 77 q 399 142 363 77 q 434 352 434 207 l 434 742 l 536 742 l 536 0 z "},"û":{"ha":627,"x_min":87,"x_max":536,"o":"m 496 842 l 437 842 q 370 909 409 866 l 309 978 q 180 842 218 876 l 123 842 l 123 856 q 256 1064 218 984 l 361 1064 q 414 971 376 1031 q 496 856 452 912 l 496 842 m 536 0 l 453 0 q 440 101 448 38 l 433 101 q 366 17 409 47 q 269 -14 322 -14 q 132 52 176 -14 q 87 258 87 117 l 87 742 l 190 742 l 190 272 q 214 124 190 171 q 289 77 237 77 q 399 142 363 77 q 434 352 434 207 l 434 742 l 536 742 l 536 0 z "},"ü":{"ha":627,"x_min":87,"x_max":536,"o":"m 157 994 q 165 1002 157 994 q 199 1010 174 1010 q 241 994 225 1010 q 257 945 257 977 q 241 896 257 913 q 199 878 225 878 q 157 896 174 878 q 141 945 141 913 q 157 994 141 977 m 385 994 q 393 1002 385 994 q 427 1010 401 1010 q 469 994 452 1010 q 485 945 485 977 q 469 896 485 913 q 427 878 453 878 q 385 896 401 878 q 369 945 369 913 q 385 994 369 977 m 536 0 l 453 0 q 440 101 448 38 l 433 101 q 366 17 409 47 q 269 -14 322 -14 q 132 52 176 -14 q 87 258 87 117 l 87 742 l 190 742 l 190 272 q 214 124 190 171 q 289 77 237 77 q 399 142 363 77 q 434 352 434 207 l 434 742 l 536 742 l 536 0 z "},"ý":{"ha":501,"x_min":4,"x_max":496,"o":"m 437 1064 l 437 1051 q 358 948 418 1014 q 248 842 298 883 l 184 842 l 184 857 q 255 961 220 903 q 310 1064 290 1019 l 437 1064 m 199 -280 q 188 -292 199 -280 q 148 -319 178 -304 q 81 -334 117 -334 q 8 -322 45 -334 l 8 -233 q 64 -242 37 -242 q 132 -209 106 -242 q 175 -104 158 -176 l 201 -3 l 4 742 l 110 742 l 218 294 q 252 116 237 216 l 257 116 q 288 289 271 210 q 390 742 361 610 l 496 742 q 307 -4 406 387 q 274 -120 288 -76 q 240 -210 260 -165 q 199 -280 220 -256 z "},"þ":{"ha":633,"x_min":91,"x_max":574,"o":"m 193 743 l 189 642 l 193 642 q 356 756 251 756 q 518 659 462 756 q 574 375 574 561 q 517 88 574 189 q 360 -14 461 -14 q 262 15 306 -14 q 193 96 219 43 l 187 96 l 196 5 l 196 -334 l 91 -334 l 91 1055 l 193 1055 l 193 743 m 193 376 q 228 149 193 222 q 336 77 262 77 q 434 148 401 77 q 467 372 467 219 q 435 595 467 525 q 333 665 404 665 q 228 601 262 665 q 193 397 194 536 l 193 376 z "},"ÿ":{"ha":501,"x_min":4,"x_max":496,"o":"m 97 994 q 105 1002 97 994 q 139 1010 113 1010 q 181 994 165 1010 q 197 945 197 977 q 181 896 197 913 q 139 878 165 878 q 97 896 113 878 q 81 945 81 913 q 97 994 81 977 m 325 994 q 332 1002 325 994 q 366 1010 340 1010 q 408 994 392 1010 q 425 945 425 977 q 409 896 425 913 q 367 878 393 878 q 325 896 341 878 q 309 945 309 913 q 325 994 309 977 m 199 -280 q 188 -292 199 -280 q 148 -319 178 -304 q 81 -334 117 -334 q 8 -322 45 -334 l 8 -233 q 64 -242 37 -242 q 132 -209 106 -242 q 175 -104 158 -176 l 201 -3 l 4 742 l 110 742 l 218 294 q 252 116 237 216 l 257 116 q 288 289 271 210 q 390 742 361 610 l 496 742 q 307 -4 406 387 q 274 -120 288 -76 q 240 -210 260 -165 q 199 -280 220 -256 z "},"ı":{"ha":286,"x_min":92,"x_max":195,"o":"m 195 0 l 92 0 l 92 743 l 195 743 l 195 0 z "},"Œ":{"ha":884,"x_min":69,"x_max":820,"o":"m 820 0 l 519 0 q 458 -3 498 0 q 402 -7 418 -6 q 153 121 237 -7 q 69 496 69 250 q 155 871 69 743 q 406 999 241 999 q 494 991 441 999 l 820 991 l 820 896 l 537 896 l 537 566 l 802 566 l 802 470 l 537 470 l 537 96 l 820 96 l 820 0 m 408 900 q 234 804 290 900 q 178 496 178 708 q 234 188 178 285 q 409 92 290 92 q 432 92 425 92 l 432 899 q 408 900 424 900 z "},"œ":{"ha":962,"x_min":59,"x_max":903,"o":"m 709 -14 q 500 123 566 -14 q 304 -14 438 -14 q 124 87 189 -14 q 59 374 59 188 q 122 658 59 559 q 309 756 184 756 q 497 622 434 756 q 684 756 557 756 q 844 668 785 756 q 903 428 903 580 l 903 356 l 551 356 q 724 75 555 75 q 878 122 798 75 l 878 33 q 709 -14 801 -14 m 802 438 q 770 608 802 545 q 681 670 737 670 q 553 438 564 670 l 802 438 m 446 361 l 446 372 q 306 665 446 665 q 198 593 232 665 q 165 372 165 521 q 306 76 165 76 q 446 361 446 76 z "},"Š":{"ha":557,"x_min":54,"x_max":505,"o":"m 484 1293 l 484 1278 q 404 1165 443 1225 q 349 1071 366 1105 l 244 1071 q 111 1278 200 1159 l 111 1293 l 168 1293 q 298 1156 205 1261 q 425 1293 380 1255 l 484 1293 m 249 82 q 358 131 317 82 q 400 250 400 180 q 363 367 400 320 q 258 456 326 414 q 106 578 150 516 q 62 751 62 641 q 130 933 62 861 q 304 1006 197 1006 q 495 957 412 1006 q 458 865 482 926 q 312 907 379 907 q 206 863 245 907 q 166 748 166 819 q 195 636 166 677 q 318 542 224 594 q 461 422 417 488 q 505 264 505 357 q 436 62 505 137 q 251 -14 368 -14 q 54 26 134 -14 l 54 134 q 148 96 95 111 q 249 82 201 82 z "},"š":{"ha":465,"x_min":47,"x_max":425,"o":"m 425 1064 l 425 1049 q 346 936 385 996 q 291 842 307 876 l 186 842 q 52 1049 142 930 l 52 1064 l 110 1064 q 240 927 147 1031 q 367 1064 321 1026 l 425 1064 m 47 131 q 118 95 71 110 q 213 79 165 79 q 292 109 262 79 q 321 184 321 139 q 305 251 321 218 q 285 276 300 261 q 262 295 269 290 q 213 331 256 300 q 130 393 170 361 q 47 565 47 459 q 105 703 47 650 q 256 757 164 757 q 418 711 348 757 l 376 631 q 260 669 315 669 q 177 640 206 669 q 149 566 149 612 q 189 475 149 506 l 277 409 q 324 373 307 387 q 361 337 341 359 q 393 294 382 315 q 418 184 418 245 q 365 36 418 85 q 210 -14 311 -14 q 47 28 109 -14 l 47 131 z "},"Ÿ":{"ha":527,"x_min":0,"x_max":527,"o":"m 109 1223 q 117 1231 109 1223 q 151 1240 125 1240 q 193 1223 177 1240 q 209 1174 209 1206 q 193 1125 209 1143 q 151 1107 177 1107 q 109 1125 125 1107 q 93 1174 93 1142 q 109 1223 93 1206 m 337 1223 q 345 1231 337 1223 q 378 1240 353 1240 q 420 1223 404 1240 q 437 1174 437 1206 q 421 1125 437 1142 q 379 1107 405 1107 q 337 1125 353 1107 q 321 1174 321 1143 q 337 1223 321 1206 m 315 0 l 210 0 l 210 388 l 0 991 l 111 991 l 264 519 l 416 991 l 527 991 l 315 391 l 315 0 z "},"Ž":{"ha":488,"x_min":35,"x_max":460,"o":"m 432 1293 l 432 1278 q 353 1165 391 1225 q 298 1071 314 1105 l 193 1071 q 59 1278 149 1159 l 59 1293 l 117 1293 q 247 1156 154 1261 q 374 1293 328 1255 l 432 1293 m 460 96 l 460 0 l 35 0 l 35 83 l 333 895 l 41 895 l 41 991 l 452 991 l 452 908 l 151 96 l 460 96 z "},"ž":{"ha":410,"x_min":26,"x_max":399,"o":"m 399 1064 l 399 1049 q 319 936 358 996 q 264 842 281 876 l 159 842 q 26 1049 115 930 l 26 1064 l 83 1064 q 214 927 121 1031 q 340 1064 295 1026 l 399 1064 m 379 86 l 379 0 l 36 0 l 36 73 l 258 656 l 50 656 l 50 743 l 369 743 l 369 665 l 150 86 l 379 86 z "},"ƒ":{"ha":585,"x_min":47,"x_max":532,"o":"m 227 732 q 268 940 227 874 q 406 1006 308 1006 q 532 978 469 1006 l 498 892 q 416 913 454 913 q 353 877 370 913 q 334 751 335 840 l 334 653 l 469 653 l 469 567 l 334 567 q 333 -77 333 352 q 286 -270 333 -207 q 143 -334 239 -334 q 47 -322 94 -334 l 47 -230 q 128 -242 92 -242 q 204 -204 181 -242 q 227 -85 227 -167 l 227 567 l 117 567 l 117 621 l 227 656 l 227 732 z "},"ˆ":{"ha":780,"x_min":202,"x_max":575,"o":"m 575 842 l 517 842 q 450 909 488 866 l 389 978 q 260 842 298 876 l 202 842 l 202 856 q 336 1064 298 984 l 441 1064 q 493 971 455 1031 q 575 856 531 912 l 575 842 z "},"ˇ":{"ha":780,"x_min":202,"x_max":575,"o":"m 575 1064 l 575 1049 q 496 936 534 996 q 441 842 457 876 l 336 842 q 202 1049 292 930 l 202 1064 l 260 1064 q 390 927 297 1031 q 517 1064 471 1026 l 575 1064 z "},"˘":{"ha":778,"x_min":220,"x_max":556,"o":"m 385 843 q 220 1023 229 843 l 286 1023 q 315 949 291 972 q 386 926 339 926 q 456 949 433 926 q 488 1023 480 972 l 556 1023 q 507 890 552 937 q 385 843 463 843 z "},"˙":{"ha":302,"x_min":89,"x_max":214,"o":"m 89 945 q 89 963 89 945 q 106 1000 89 981 q 153 1019 123 1019 q 199 1000 183 1019 q 214 945 214 981 q 198 889 214 909 q 153 869 182 869 q 106 889 123 869 q 89 945 89 909 z "},"˚":{"ha":787,"x_min":248,"x_max":539,"o":"m 248 982 q 248 1014 248 982 q 288 1082 248 1045 q 392 1120 328 1120 q 498 1082 456 1120 q 539 983 539 1044 q 499 883 539 921 q 393 846 459 846 q 287 882 327 846 q 248 982 248 919 m 470 982 q 470 999 470 982 q 449 1037 470 1017 q 394 1058 429 1058 q 337 1037 359 1058 q 315 982 315 1016 q 335 927 315 947 q 391 907 355 907 q 449 927 427 907 q 470 982 470 948 z "},"˛":{"ha":267,"x_min":25,"x_max":230,"o":"m 218 -289 q 131 -310 186 -310 q 39 -281 76 -310 q 25 -193 25 -245 l 57 -163 q 92 -108 92 -138 q 66 -74 92 -86 q 121 0 93 -30 l 193 0 q 125 -135 130 -68 q 202 -213 149 -189 l 230 -222 q 218 -289 230 -258 z "},"˜":{"ha":780,"x_min":184,"x_max":595,"o":"m 473 842 q 424 855 450 842 q 380 883 398 868 q 305 924 330 924 q 250 841 262 924 l 184 841 q 224 962 193 920 q 309 1004 256 1004 q 370 984 338 1004 q 429 943 401 964 q 478 923 457 923 q 511 943 499 923 q 530 1006 522 964 l 595 1006 q 556 884 588 926 q 473 842 524 842 z "},"˝":{"ha":785,"x_min":165,"x_max":606,"o":"m 398 1064 l 398 1052 q 320 945 374 1007 q 220 842 267 882 l 165 842 l 165 857 q 230 962 195 897 q 281 1064 265 1026 l 398 1064 m 606 1064 l 606 1052 q 532 949 585 1010 q 429 842 480 888 l 374 842 l 374 857 q 438 962 404 897 q 490 1064 473 1026 l 606 1064 z "},"ְ":{"ha":0,"x_min":-47,"x_max":50,"o":"m 0 -54 q 50 -113 50 -54 q 0 -172 50 -172 q -47 -113 -47 -172 q 0 -54 -47 -54 m 0 -260 q 50 -318 50 -260 q 0 -377 50 -377 q -47 -318 -47 -377 q 0 -260 -47 -260 z "},"ֱ":{"ha":0,"x_min":-271,"x_max":248,"o":"m -224 -54 q -174 -113 -174 -54 q -224 -172 -174 -172 q -271 -113 -271 -172 q -224 -54 -271 -54 m 0 -54 q 50 -113 50 -54 q 0 -172 50 -172 q -47 -113 -47 -172 q 0 -54 -47 -54 m 199 -54 q 248 -113 248 -54 q 199 -172 248 -172 q 151 -113 151 -172 q 199 -54 151 -54 m -113 -260 q -63 -318 -63 -260 q -113 -377 -63 -377 q -160 -318 -160 -377 q -113 -260 -160 -260 m 199 -260 q 248 -318 248 -260 q 199 -377 248 -377 q 151 -318 151 -377 q 199 -260 151 -260 z "},"ֲ":{"ha":0,"x_min":-224,"x_max":223,"o":"m 174 -54 q 223 -113 223 -54 q 174 -172 223 -172 q 126 -113 126 -172 q 174 -54 126 -54 m 54 -140 l -224 -140 l -224 -85 l 54 -85 l 54 -140 m 174 -260 q 223 -318 223 -260 q 174 -377 223 -377 q 126 -318 126 -377 q 174 -260 126 -260 z "},"ֳ":{"ha":0,"x_min":-220,"x_max":227,"o":"m 177 -54 q 227 -113 227 -54 q 177 -172 227 -172 q 130 -113 130 -172 q 177 -54 130 -54 m 58 -140 l -54 -140 l -54 -298 l -109 -298 l -109 -140 l -220 -140 l -220 -85 l 58 -85 l 58 -140 m 177 -260 q 227 -318 227 -260 q 177 -377 227 -377 q 130 -318 130 -377 q 177 -260 130 -260 z "},"ִ":{"ha":0,"x_min":-48,"x_max":49,"o":"m -1 -54 q 49 -113 49 -54 q -1 -172 49 -172 q -48 -113 -48 -172 q -1 -54 -48 -54 z "},"ֵ":{"ha":0,"x_min":-160,"x_max":161,"o":"m -113 -54 q -63 -113 -63 -54 q -113 -172 -63 -172 q -160 -113 -160 -172 q -113 -54 -160 -54 m 111 -54 q 161 -113 161 -54 q 111 -172 161 -172 q 64 -113 64 -172 q 111 -54 64 -54 z "},"ֶ":{"ha":0,"x_min":-159,"x_max":162,"o":"m -111 -54 q -62 -113 -62 -54 q -111 -172 -62 -172 q -159 -113 -159 -172 q -111 -54 -159 -54 m 113 -54 q 162 -113 162 -54 q 113 -172 162 -172 q 65 -113 65 -172 q 113 -54 65 -54 m 0 -260 q 50 -318 50 -260 q 0 -377 50 -377 q -47 -318 -47 -377 q 0 -260 -47 -260 z "},"ַ":{"ha":0,"x_min":-138,"x_max":140,"o":"m 140 -134 l -138 -134 l -138 -79 l 140 -79 l 140 -134 z "},"ָ":{"ha":0,"x_min":-142,"x_max":136,"o":"m 136 -134 l 25 -134 l 25 -292 l -31 -292 l -31 -134 l -142 -134 l -142 -79 l 136 -79 l 136 -134 z "},"ֹ":{"ha":0,"x_min":-48,"x_max":49,"o":"m -1 1074 q 49 1015 49 1074 q -1 956 49 956 q -48 1015 -48 956 q -1 1074 -48 1074 z "},"ֺ":{"ha":0,"x_min":-48,"x_max":49,"o":"m -1 1074 q 49 1015 49 1074 q -1 956 49 956 q -48 1015 -48 956 q -1 1074 -48 1074 z "},"ֻ":{"ha":0,"x_min":-100,"x_max":221,"o":"m -52 -54 q -3 -113 -3 -54 q -52 -172 -3 -172 q -100 -113 -100 -172 q -52 -54 -100 -54 m 59 -157 q 109 -215 109 -157 q 59 -274 109 -274 q 12 -215 12 -274 q 59 -157 12 -157 m 172 -260 q 221 -318 221 -260 q 172 -377 221 -377 q 124 -318 124 -377 q 172 -260 124 -260 z "},"ּ":{"ha":0,"x_min":-47,"x_max":50,"o":"m 0 543 q 50 484 50 543 q 0 425 50 425 q -47 484 -47 425 q 0 543 -47 543 z "},"ֽ":{"ha":0,"x_min":-35,"x_max":35,"o":"m 35 -345 l -35 -345 l -35 -106 l 35 -106 l 35 -345 z "},"־":{"ha":379,"x_min":40,"x_max":339,"o":"m 339 776 l 40 776 l 40 874 l 339 874 l 339 776 z "},"ׁ":{"ha":0,"x_min":-47,"x_max":50,"o":"m 0 1074 q 50 1015 50 1074 q 0 956 50 956 q -47 1015 -47 956 q 0 1074 -47 1074 z "},"ׂ":{"ha":0,"x_min":-47,"x_max":50,"o":"m 0 1060 q 50 1001 50 1060 q 0 943 50 943 q -47 1001 -47 943 q 0 1060 -47 1060 z "},"ׇ":{"ha":0,"x_min":-138,"x_max":140,"o":"m 140 -134 l 31 -134 l 31 -293 l -33 -293 l -33 -134 l -138 -134 l -138 -66 l 140 -66 l 140 -134 z "},"א":{"ha":583,"x_min":46,"x_max":534,"o":"m 531 875 l 531 558 q 527 486 531 517 q 511 416 523 454 q 403 303 485 338 q 471 144 427 247 q 534 0 516 41 l 418 0 l 217 487 q 166 411 180 460 q 153 283 153 363 l 153 0 l 52 0 l 52 309 q 111 522 52 454 q 179 572 138 553 l 46 875 l 161 875 l 294 545 l 365 388 q 416 457 403 412 q 430 584 430 503 l 430 875 l 531 875 z "},"ב":{"ha":549,"x_min":63,"x_max":528,"o":"m 63 880 q 206 888 136 888 q 319 876 276 888 q 390 843 363 864 q 432 787 416 822 q 453 714 448 753 q 458 623 458 676 l 458 86 l 528 86 l 528 0 l 64 0 l 64 86 l 355 86 l 355 623 q 293 787 355 760 q 217 800 262 800 q 81 793 132 800 l 63 791 l 63 880 z "},"ג":{"ha":474,"x_min":60,"x_max":387,"o":"m 307 0 l 293 138 l 286 138 l 279 118 q 270 94 278 114 q 254 65 261 75 q 232 40 247 56 q 202 16 218 24 q 111 -6 159 -6 q 60 1 86 -6 l 73 99 q 90 94 73 97 q 117 92 106 92 q 245 156 206 92 q 284 349 284 220 l 284 650 q 265 763 284 727 q 189 799 246 799 q 115 786 163 799 l 115 876 q 205 888 161 888 q 283 875 249 888 q 338 841 318 862 q 369 788 357 821 q 383 724 380 755 q 387 650 387 692 l 387 0 l 307 0 z "},"ד":{"ha":497,"x_min":14,"x_max":479,"o":"m 479 875 l 479 796 q 347 605 347 749 l 347 0 l 245 0 l 245 606 q 255 679 245 646 q 278 731 264 711 q 330 783 307 771 l 339 788 l 14 788 l 14 875 l 479 875 z "},"ה":{"ha":648,"x_min":91,"x_max":562,"o":"m 300 888 q 503 831 445 888 q 562 624 562 774 l 562 0 l 458 0 l 458 624 q 449 714 458 680 q 420 768 441 749 q 369 793 399 787 q 279 800 340 800 q 91 782 219 800 l 91 869 q 300 888 201 888 m 194 0 l 91 0 l 91 553 l 194 553 l 194 0 z "},"ו":{"ha":285,"x_min":91,"x_max":193,"o":"m 193 0 l 91 0 l 91 875 l 193 875 l 193 0 z "},"ז":{"ha":326,"x_min":87,"x_max":305,"o":"m 305 875 l 305 793 q 247 685 271 756 q 218 486 223 614 q 216 429 216 442 l 216 0 l 114 0 l 114 376 q 141 623 114 518 q 214 788 168 728 l 87 788 l 87 875 l 305 875 z "},"ח":{"ha":648,"x_min":91,"x_max":562,"o":"m 91 0 l 91 869 q 124 874 94 869 q 177 880 155 878 q 300 888 248 888 q 503 831 445 888 q 562 624 562 774 l 562 0 l 458 0 l 458 624 q 449 714 458 680 q 420 768 441 749 q 369 793 399 787 q 297 800 340 800 q 194 793 254 800 l 194 0 l 91 0 z "},"ט":{"ha":634,"x_min":64,"x_max":574,"o":"m 327 888 q 467 831 411 888 q 574 437 574 722 q 467 48 574 156 q 320 -14 405 -14 q 173 48 235 -14 q 64 437 64 157 l 64 874 l 170 874 l 170 437 q 214 148 170 229 q 262 92 236 109 q 320 75 288 75 q 378 92 353 75 q 425 148 404 109 q 469 437 469 229 q 425 727 469 644 q 378 783 404 766 q 323 800 352 800 q 262 793 294 800 l 262 881 q 327 888 298 888 z "},"י":{"ha":281,"x_min":89,"x_max":191,"o":"m 191 424 q 115 316 117 319 l 89 316 l 89 875 l 191 875 l 191 424 z "},"ך":{"ha":493,"x_min":31,"x_max":406,"o":"m 31 865 q 158 888 100 888 q 259 868 216 888 q 330 812 302 847 q 374 726 357 777 q 406 492 406 633 l 406 -334 l 302 -334 l 302 492 q 155 796 302 796 q 31 769 93 796 l 31 865 z "},"כ":{"ha":466,"x_min":31,"x_max":406,"o":"m 31 865 q 158 888 100 888 q 259 868 216 888 q 330 812 302 847 q 374 726 357 777 q 406 492 406 633 l 406 358 q 400 254 406 302 q 378 155 395 206 q 335 68 361 104 q 264 9 309 33 q 155 -14 219 -14 q 33 5 90 -14 l 33 98 q 111 78 85 81 q 162 76 136 76 q 213 91 187 76 q 253 132 238 106 q 279 186 269 158 q 293 250 289 214 q 300 358 300 307 l 300 492 q 155 796 300 796 q 31 770 100 796 l 31 865 z "},"ל":{"ha":460,"x_min":30,"x_max":435,"o":"m 132 878 l 435 878 l 435 787 q 378 557 415 707 q 326 341 342 408 q 261 0 309 249 l 159 0 q 191 166 165 35 q 222 336 216 297 l 335 787 l 30 787 l 30 1061 l 132 1061 l 132 878 z "},"ם":{"ha":648,"x_min":91,"x_max":562,"o":"m 91 0 l 91 873 q 291 888 200 888 q 430 877 381 888 q 509 834 479 865 q 551 756 540 804 q 562 630 562 708 l 562 0 l 91 0 m 458 86 l 458 630 q 452 720 458 688 q 425 771 446 752 q 375 795 405 790 q 297 801 346 801 q 194 794 248 801 l 194 86 l 458 86 z "},"מ":{"ha":633,"x_min":36,"x_max":545,"o":"m 303 876 q 319 882 303 876 q 370 888 335 888 q 432 877 404 888 q 478 849 460 866 q 509 805 496 832 q 529 752 522 777 q 540 690 536 726 q 545 566 545 635 l 545 0 l 288 0 l 288 86 l 443 86 l 443 566 q 430 726 443 686 q 387 790 414 776 q 344 799 371 799 q 290 784 317 799 q 247 747 263 769 q 203 668 214 704 l 198 653 l 139 0 l 36 0 l 88 578 q 95 683 95 656 q 93 729 96 709 q 86 765 90 749 q 77 801 83 781 q 67 832 71 821 q 58 858 64 842 q 52 875 52 874 l 154 875 q 170 828 158 865 q 185 773 181 791 l 191 773 q 216 810 197 788 q 253 848 235 833 q 303 876 272 863 z "},"ן":{"ha":288,"x_min":60,"x_max":198,"o":"m 198 595 l 198 -334 l 95 -334 l 95 595 q 86 732 95 662 q 68 838 77 802 l 60 875 l 163 875 q 188 746 177 828 q 198 595 198 663 z "},"נ":{"ha":418,"x_min":27,"x_max":332,"o":"m 62 877 q 147 888 112 888 q 211 881 182 888 q 259 863 239 874 q 292 831 278 851 q 313 791 305 811 q 326 742 321 772 q 332 625 332 699 l 332 231 q 325 121 332 179 q 311 32 317 64 l 303 0 l 27 0 l 27 86 l 213 86 q 229 231 229 142 l 229 670 q 213 760 229 726 q 134 799 193 799 q 62 787 110 799 l 62 877 z "},"ס":{"ha":628,"x_min":59,"x_max":568,"o":"m 313 888 q 460 827 399 888 q 555 614 528 759 q 568 437 568 536 q 554 261 568 339 q 517 132 541 183 q 460 48 494 81 q 313 -14 399 -14 q 137 84 207 -14 q 80 225 100 135 q 59 437 59 315 q 158 793 59 663 l 71 788 l 71 876 q 313 888 208 888 m 255 795 q 184 655 203 740 q 165 452 165 570 q 176 260 165 333 q 209 148 187 187 q 255 92 230 109 q 313 75 281 75 q 371 92 346 75 q 418 148 397 109 q 463 437 463 230 q 401 754 463 675 q 360 789 382 779 q 313 799 339 799 l 255 795 z "},"ע":{"ha":602,"x_min":44,"x_max":578,"o":"m 234 479 l 297 116 q 392 246 360 157 q 437 479 423 335 q 456 676 444 545 q 475 874 469 808 l 578 874 l 541 488 q 508 267 526 335 q 351 39 466 104 q 224 -3 296 9 q 44 -35 177 -12 l 44 52 q 218 83 178 73 l 45 875 l 149 875 l 234 479 z "},"ף":{"ha":640,"x_min":54,"x_max":553,"o":"m 279 296 q 115 367 176 296 q 54 579 54 439 q 123 804 54 720 q 298 888 191 888 q 445 827 383 888 q 538 614 513 759 q 553 437 553 536 l 553 -334 l 450 -334 l 450 437 q 404 727 450 645 q 357 782 382 766 q 295 799 331 799 q 231 776 260 799 q 186 719 201 753 q 155 583 155 650 q 286 378 155 385 q 300 376 290 378 l 281 296 q 279 296 281 296 z "},"פ":{"ha":612,"x_min":55,"x_max":553,"o":"m 268 297 q 112 373 169 300 q 55 583 55 445 q 123 805 55 721 q 298 888 192 888 q 445 827 384 888 q 538 614 513 758 q 553 437 553 536 q 538 261 553 339 q 499 133 524 183 q 439 49 474 82 q 290 -14 376 -14 q 142 -1 210 -14 l 121 2 l 121 92 q 290 76 211 76 q 447 437 447 76 q 403 727 447 647 q 357 782 382 766 q 296 799 332 799 q 231 776 260 799 q 186 718 201 753 q 155 581 155 648 q 185 433 155 484 q 286 378 216 381 l 300 377 l 282 296 l 268 297 z "},"ץ":{"ha":496,"x_min":2,"x_max":450,"o":"m 450 875 l 450 566 q 410 401 450 475 q 345 335 388 362 q 242 299 302 308 l 242 -334 l 136 -334 l 136 378 l 2 875 l 115 875 l 243 382 q 322 444 296 400 q 348 566 348 488 l 348 875 l 450 875 z "},"צ":{"ha":568,"x_min":39,"x_max":524,"o":"m 507 0 l 41 0 l 41 86 l 272 86 l 391 83 l 267 326 l 39 875 l 147 875 l 332 410 q 401 671 382 466 l 421 874 l 524 874 l 510 728 q 468 480 495 570 q 376 326 441 390 l 507 54 l 507 0 z "},"ק":{"ha":624,"x_min":96,"x_max":581,"o":"m 385 15 l 385 0 l 284 0 l 284 15 q 289 70 284 43 q 297 113 294 96 q 306 154 300 130 q 315 196 311 179 q 327 242 319 212 q 339 288 335 271 q 398 507 357 351 q 474 788 439 663 l 96 788 l 96 875 l 581 875 l 581 799 l 468 385 q 456 342 466 377 q 444 294 447 307 q 431 250 440 282 q 419 202 422 217 q 409 159 415 186 q 399 115 402 131 q 392 77 395 98 q 385 15 385 42 m 199 -334 l 96 -334 l 96 517 l 199 517 l 199 -334 z "},"ר":{"ha":488,"x_min":20,"x_max":401,"o":"m 155 888 q 349 832 298 888 q 401 624 401 777 l 401 0 l 298 0 l 298 624 q 292 713 298 680 q 268 766 286 745 q 222 793 250 787 q 148 800 194 800 q 20 792 101 800 l 20 880 q 155 888 98 888 z "},"ש":{"ha":765,"x_min":43,"x_max":723,"o":"m 245 0 l 116 0 l 43 875 l 142 875 l 182 393 q 284 476 252 418 q 328 651 317 534 l 347 875 l 444 875 l 425 652 q 384 464 414 533 q 190 309 333 343 l 208 87 l 245 87 q 418 140 342 87 q 536 283 493 193 q 590 493 579 374 l 625 875 l 723 875 l 688 493 q 553 132 667 264 q 476 63 519 91 q 374 17 433 35 q 245 0 315 0 z "},"ת":{"ha":643,"x_min":14,"x_max":553,"o":"m 48 867 q 79 871 50 867 q 136 879 108 876 q 290 888 214 888 q 413 873 367 888 q 486 835 459 859 q 528 775 513 812 q 549 704 544 739 q 553 623 553 669 l 553 0 l 451 0 l 451 623 q 385 787 451 760 q 309 800 353 800 q 210 797 264 800 l 210 239 q 183 49 210 102 q 77 -4 156 -4 q 14 5 52 -4 l 14 94 q 50 88 47 88 q 94 110 81 88 q 106 174 106 131 l 106 787 q 48 780 90 785 l 48 867 z "},"׳":{"ha":237,"x_min":24,"x_max":213,"o":"m 204 875 l 213 861 q 187 777 208 840 q 98 549 157 687 l 24 549 q 53 666 40 605 q 92 875 66 727 l 204 875 z "},"״":{"ha":463,"x_min":24,"x_max":439,"o":"m 204 875 l 213 861 q 187 777 208 840 q 98 549 157 687 l 24 549 q 53 666 40 605 q 92 875 66 727 l 204 875 m 439 861 q 323 549 406 736 l 249 549 q 289 711 286 698 q 317 875 306 795 l 430 875 l 439 861 z "},"–":{"ha":683,"x_min":53,"x_max":630,"o":"m 630 332 l 53 332 l 53 417 l 630 417 l 630 332 z "},"—":{"ha":1284,"x_min":53,"x_max":1231,"o":"m 1231 332 l 53 332 l 53 417 l 1231 417 l 1231 332 z "},"‘":{"ha":237,"x_min":24,"x_max":212,"o":"m 139 991 l 212 991 q 144 666 161 806 l 33 666 l 24 682 q 139 991 68 840 z "},"’":{"ha":237,"x_min":24,"x_max":212,"o":"m 203 991 l 212 977 q 98 666 174 836 l 24 666 q 92 991 72 837 l 203 991 z "},"‚":{"ha":315,"x_min":47,"x_max":236,"o":"m 227 146 l 236 131 q 121 -179 193 -20 l 47 -179 q 115 146 95 -6 l 227 146 z "},"“":{"ha":463,"x_min":24,"x_max":439,"o":"m 139 991 l 212 991 q 144 666 161 806 l 33 666 l 24 682 q 139 991 68 840 m 364 991 l 439 991 q 370 666 389 813 l 259 666 l 250 682 q 364 991 293 831 z "},"”":{"ha":463,"x_min":24,"x_max":439,"o":"m 203 991 l 213 977 q 98 666 172 831 l 24 666 q 92 991 71 836 l 203 991 m 429 991 l 439 977 q 323 666 397 830 l 250 666 q 318 991 298 835 l 429 991 z "},"„":{"ha":520,"x_min":26,"x_max":441,"o":"m 205 146 l 215 130 q 100 -179 174 -16 l 26 -179 q 94 146 73 -7 l 205 146 m 431 146 l 441 130 q 326 -179 404 -3 l 252 -179 q 320 146 302 12 l 431 146 z "},"†":{"ha":631,"x_min":81,"x_max":549,"o":"m 341 768 l 549 783 l 549 690 l 341 701 l 364 0 l 252 0 l 275 701 l 81 690 l 81 783 l 275 768 l 252 1055 l 364 1055 l 341 768 z "},"‡":{"ha":631,"x_min":79,"x_max":551,"o":"m 343 798 l 551 812 l 551 720 l 343 731 l 358 533 l 343 325 l 551 336 l 551 243 l 343 258 l 366 0 l 254 0 l 277 258 l 79 243 l 79 336 l 277 325 l 262 533 l 277 731 l 79 720 l 79 812 l 277 798 l 254 1055 l 366 1055 l 343 798 z "},"•":{"ha":517,"x_min":98,"x_max":419,"o":"m 98 508 q 98 551 98 508 q 140 640 98 595 q 259 686 181 686 q 378 640 336 686 q 419 508 419 594 q 377 375 419 421 q 259 328 336 328 q 140 375 182 328 q 98 508 98 421 z "},"…":{"ha":947,"x_min":85,"x_max":861,"o":"m 157 -14 q 85 72 85 -14 q 158 157 85 157 q 230 72 230 157 q 211 8 230 29 q 157 -14 191 -14 m 473 157 q 527 136 507 157 q 546 72 546 115 q 526 8 546 30 q 473 -14 507 -14 q 401 72 401 -14 q 473 157 401 157 m 716 72 q 716 114 716 72 q 789 157 716 157 q 861 72 861 157 q 842 8 861 30 q 789 -14 822 -14 q 716 72 716 -14 z "},"‰":{"ha":1274,"x_min":56,"x_max":1206,"o":"m 56 694 q 56 771 56 694 q 96 926 56 847 q 213 1006 135 1006 q 331 927 291 1006 q 372 697 372 848 q 330 464 372 545 q 212 383 289 383 q 95 463 134 383 q 56 694 56 542 m 580 991 l 667 991 q 316 0 591 778 l 228 0 l 580 991 m 212 927 q 161 871 176 927 q 145 696 145 816 q 161 520 145 576 q 213 464 177 464 q 266 520 250 464 q 283 696 283 576 q 212 927 283 927 m 681 608 q 800 530 760 608 q 840 299 840 451 q 799 67 840 148 q 680 -13 757 -13 q 564 67 604 -13 q 525 298 525 146 q 681 608 525 608 m 891 298 q 891 374 891 298 q 930 529 891 450 q 1047 608 970 608 q 1165 530 1125 608 q 1206 300 1206 452 q 1164 68 1206 149 q 1046 -13 1123 -13 q 930 66 969 -13 q 891 298 891 146 m 680 530 q 629 474 644 530 q 613 299 613 418 q 629 123 613 179 q 682 67 645 67 q 735 124 718 67 q 751 299 751 181 q 680 530 751 530 m 1046 530 q 996 474 1011 530 q 980 299 980 418 q 996 123 980 179 q 1048 67 1012 67 q 1101 123 1084 67 q 1117 299 1117 179 q 1046 530 1117 530 z "},"‹":{"ha":379,"x_min":54,"x_max":325,"o":"m 325 599 l 176 365 l 325 130 l 253 89 l 54 355 l 54 373 l 253 640 l 325 599 z "},"›":{"ha":379,"x_min":54,"x_max":325,"o":"m 325 373 l 325 355 l 126 89 l 54 130 l 202 365 l 54 599 l 126 640 l 325 373 z "},"⁄":{"ha":166,"x_min":-218,"x_max":384,"o":"m -131 0 l -218 0 l 296 991 l 384 991 l -131 0 z "},"₪":{"ha":869,"x_min":96,"x_max":783,"o":"m 96 875 l 322 875 q 491 841 422 875 q 538 800 519 827 q 567 750 557 772 q 581 688 576 729 q 587 624 586 648 q 587 575 587 600 q 587 223 587 575 l 488 223 l 488 549 q 482 683 488 661 q 471 722 477 705 q 457 747 466 739 q 436 764 448 755 q 408 776 425 772 q 322 784 367 784 l 198 784 l 198 0 l 96 0 l 96 875 m 783 875 l 783 467 q 744 191 783 286 q 700 116 728 153 q 633 54 672 78 q 537 15 595 30 q 409 0 480 0 l 283 0 l 283 651 l 386 651 l 386 90 l 409 90 q 602 153 538 90 q 675 334 660 210 q 683 467 683 391 l 683 875 l 783 875 z "},"€":{"ha":585,"x_min":24,"x_max":558,"o":"m 24 620 l 118 620 q 209 903 134 799 q 394 1007 283 1007 q 558 958 484 1007 l 515 870 q 398 909 454 909 q 225 620 253 909 l 439 620 l 439 545 l 220 545 l 218 496 l 220 426 l 414 426 l 414 352 l 225 352 q 406 85 252 85 q 546 122 481 85 l 546 22 q 403 -14 482 -14 q 118 352 155 -14 l 24 352 l 24 426 l 113 426 q 113 486 113 446 l 113 503 q 113 545 113 531 l 24 545 l 24 620 z "},"™":{"ha":966,"x_min":9,"x_max":875,"o":"m 357 924 l 219 924 l 219 503 l 146 503 l 146 924 l 9 924 l 9 991 l 357 991 l 357 924 m 875 503 l 802 503 l 802 785 l 805 897 l 800 897 l 669 503 l 602 503 l 474 899 l 469 899 l 473 765 l 473 503 l 402 503 l 402 991 l 513 991 l 637 607 l 765 991 l 875 991 l 875 503 z "},"ﬁ":{"ha":629,"x_min":15,"x_max":547,"o":"m 107 804 q 147 1001 107 939 q 279 1063 187 1063 q 382 1041 334 1063 l 351 956 q 285 972 317 972 q 225 934 242 971 q 209 802 209 897 l 209 742 l 328 742 l 328 656 l 209 656 l 209 0 l 107 0 l 107 656 l 15 656 l 15 711 q 107 747 32 718 l 107 804 m 425 944 q 425 962 425 944 q 442 999 425 979 q 487 1019 459 1019 q 531 999 515 1019 q 547 944 547 979 q 530 889 547 909 q 487 869 514 869 q 442 889 459 869 q 425 944 425 909 m 537 0 l 434 0 l 434 743 l 537 743 l 537 0 z "},"ﬂ":{"ha":627,"x_min":15,"x_max":536,"o":"m 107 804 q 147 1001 107 939 q 279 1063 187 1063 q 382 1041 334 1063 l 351 956 q 285 972 317 972 q 225 934 242 971 q 209 802 209 897 l 209 742 l 328 742 l 328 656 l 209 656 l 209 0 l 107 0 l 107 656 l 15 656 l 15 711 q 107 747 32 718 l 107 804 m 536 0 l 433 0 l 433 1055 l 536 1055 l 536 0 z "},"שׁ":{"ha":765,"x_min":43,"x_max":735,"o":"m 686 1046 q 735 987 735 1046 q 686 928 735 928 q 638 987 638 928 q 686 1046 638 1046 m 245 0 l 116 0 l 43 875 l 142 875 l 182 393 q 284 476 252 418 q 328 651 317 534 l 347 875 l 444 875 l 425 652 q 384 464 414 533 q 190 309 333 343 l 208 87 l 245 87 q 418 140 342 87 q 536 283 493 193 q 590 493 579 374 l 625 875 l 723 875 l 688 493 q 553 132 667 264 q 476 63 519 91 q 374 17 433 35 q 245 0 315 0 z "},"שׂ":{"ha":765,"x_min":25,"x_max":723,"o":"m 73 1032 q 122 974 122 1032 q 73 915 122 915 q 25 974 25 915 q 73 1032 25 1032 m 245 0 l 116 0 l 43 875 l 142 875 l 182 393 q 284 476 252 418 q 328 651 317 534 l 347 875 l 444 875 l 425 652 q 384 464 414 533 q 190 309 333 343 l 208 87 l 245 87 q 418 140 342 87 q 536 283 493 193 q 590 493 579 374 l 625 875 l 723 875 l 688 493 q 553 132 667 264 q 476 63 519 91 q 374 17 433 35 q 245 0 315 0 z "},"שּׁ":{"ha":765,"x_min":43,"x_max":735,"o":"m 686 1046 q 735 987 735 1046 q 686 928 735 928 q 638 987 638 928 q 686 1046 638 1046 m 245 0 l 116 0 l 43 875 l 142 875 l 182 393 q 284 476 252 418 q 328 651 317 534 l 347 875 l 444 875 l 425 652 q 384 464 414 533 q 190 309 333 343 l 208 87 l 245 87 q 418 140 342 87 q 536 283 493 193 q 590 493 579 374 l 625 875 l 723 875 l 688 493 q 553 132 667 264 q 476 63 519 91 q 374 17 433 35 q 245 0 315 0 m 380 353 q 429 294 429 353 q 380 235 429 235 q 332 294 332 235 q 380 353 332 353 z "},"שּׂ":{"ha":765,"x_min":25,"x_max":723,"o":"m 73 1032 q 122 974 122 1032 q 73 915 122 915 q 25 974 25 915 q 73 1032 25 1032 m 245 0 l 116 0 l 43 875 l 142 875 l 182 393 q 284 476 252 418 q 328 651 317 534 l 347 875 l 444 875 l 425 652 q 384 464 414 533 q 190 309 333 343 l 208 87 l 245 87 q 418 140 342 87 q 536 283 493 193 q 590 493 579 374 l 625 875 l 723 875 l 688 493 q 553 132 667 264 q 476 63 519 91 q 374 17 433 35 q 245 0 315 0 m 380 353 q 429 294 429 353 q 380 235 429 235 q 332 294 332 235 q 380 353 332 353 z "},"אַ":{"ha":583,"x_min":46,"x_max":534,"o":"m 531 875 l 531 558 q 527 486 531 517 q 511 416 523 454 q 403 303 485 338 q 471 144 427 247 q 534 0 516 41 l 418 0 l 217 487 q 166 411 180 460 q 153 283 153 363 l 153 0 l 52 0 l 52 309 q 111 522 52 454 q 179 572 138 553 l 46 875 l 161 875 l 294 545 l 365 388 q 416 457 403 412 q 430 584 430 503 l 430 875 l 531 875 m 431 -209 l 153 -209 l 153 -153 l 431 -153 l 431 -209 z "},"אָ":{"ha":583,"x_min":46,"x_max":534,"o":"m 531 875 l 531 558 q 527 486 531 517 q 511 416 523 454 q 403 303 485 338 q 471 144 427 247 q 534 0 516 41 l 418 0 l 217 487 q 166 411 180 460 q 153 283 153 363 l 153 0 l 52 0 l 52 309 q 111 522 52 454 q 179 572 138 553 l 46 875 l 161 875 l 294 545 l 365 388 q 416 457 403 412 q 430 584 430 503 l 430 875 l 531 875 m 428 -209 l 317 -209 l 317 -366 l 261 -366 l 261 -209 l 150 -209 l 150 -153 l 428 -153 l 428 -209 z "},"אּ":{"ha":583,"x_min":46,"x_max":534,"o":"m 531 875 l 531 558 q 527 486 531 517 q 511 416 523 454 q 403 303 485 338 q 471 144 427 247 q 534 0 516 41 l 418 0 l 217 487 q 166 411 180 460 q 153 283 153 363 l 153 0 l 52 0 l 52 309 q 111 522 52 454 q 179 572 138 553 l 46 875 l 161 875 l 294 545 l 365 388 q 416 457 403 412 q 430 584 430 503 l 430 875 l 531 875 m 239 222 q 289 163 289 222 q 239 104 289 104 q 192 163 192 104 q 239 222 192 222 z "},"בּ":{"ha":549,"x_min":63,"x_max":528,"o":"m 63 880 q 206 888 136 888 q 319 876 276 888 q 390 843 363 864 q 432 787 416 822 q 453 714 448 753 q 458 623 458 676 l 458 86 l 528 86 l 528 0 l 64 0 l 64 86 l 355 86 l 355 623 q 293 787 355 760 q 217 800 262 800 q 81 793 132 800 l 63 791 l 63 880 m 199 496 q 248 438 248 496 q 199 379 248 379 q 151 438 151 379 q 199 496 151 496 z "},"גּ":{"ha":474,"x_min":60,"x_max":387,"o":"m 307 0 l 293 138 l 286 138 l 279 118 q 270 94 278 114 q 254 65 261 75 q 232 40 247 56 q 202 16 218 24 q 111 -6 159 -6 q 60 1 86 -6 l 73 99 q 90 94 73 97 q 117 92 106 92 q 245 156 206 92 q 284 349 284 220 l 284 650 q 265 763 284 727 q 189 799 246 799 q 115 786 163 799 l 115 876 q 205 888 161 888 q 283 875 249 888 q 338 841 318 862 q 369 788 357 821 q 383 724 380 755 q 387 650 387 692 l 387 0 l 307 0 m 168 496 q 217 438 217 496 q 168 379 217 379 q 120 438 120 379 q 168 496 120 496 z "},"דּ":{"ha":497,"x_min":14,"x_max":479,"o":"m 479 875 l 479 796 q 347 605 347 749 l 347 0 l 245 0 l 245 606 q 255 679 245 646 q 278 731 264 711 q 330 783 307 771 l 339 788 l 14 788 l 14 875 l 479 875 m 140 496 q 190 438 190 496 q 140 379 190 379 q 93 438 93 379 q 140 496 93 496 z "},"הּ":{"ha":648,"x_min":91,"x_max":562,"o":"m 300 888 q 503 831 445 888 q 562 624 562 774 l 562 0 l 458 0 l 458 624 q 449 714 458 680 q 420 768 441 749 q 369 793 399 787 q 279 800 340 800 q 91 782 219 800 l 91 869 q 300 888 201 888 m 91 0 l 91 553 l 194 553 l 194 0 l 91 0 m 324 496 q 374 438 374 496 q 324 379 374 379 q 277 438 277 379 q 324 496 277 496 z "},"וּ":{"ha":285,"x_min":-58,"x_max":193,"o":"m 91 0 l 91 875 l 193 875 l 193 0 l 91 0 m -10 496 q 39 438 39 496 q -10 379 39 379 q -58 438 -58 379 q -10 496 -58 496 z "},"זּ":{"ha":326,"x_min":-29,"x_max":305,"o":"m 305 875 l 305 793 q 247 685 271 756 q 218 486 223 614 q 216 429 216 442 l 216 0 l 114 0 l 114 376 q 141 623 114 518 q 214 788 168 728 l 87 788 l 87 875 l 305 875 m 18 496 q 68 438 68 496 q 18 379 68 379 q -29 438 -29 379 q 18 496 -29 496 z "},"טּ":{"ha":634,"x_min":64,"x_max":574,"o":"m 327 888 q 467 831 411 888 q 574 437 574 722 q 467 48 574 156 q 320 -14 405 -14 q 173 48 235 -14 q 64 437 64 157 l 64 874 l 170 874 l 170 437 q 214 148 170 229 q 262 92 236 109 q 320 75 288 75 q 378 92 353 75 q 425 148 404 109 q 469 437 469 229 q 425 727 469 644 q 378 783 404 766 q 323 800 352 800 q 262 793 294 800 l 262 881 q 327 888 298 888 m 317 496 q 367 438 367 496 q 317 379 367 379 q 270 438 270 379 q 317 496 270 496 z "},"יּ":{"ha":281,"x_min":-28,"x_max":191,"o":"m 191 424 q 115 316 117 319 l 89 316 l 89 875 l 191 875 l 191 424 m 19 644 q 68 586 68 644 q 19 527 68 527 q -28 586 -28 527 q 19 644 -28 644 z "},"ךּ":{"ha":493,"x_min":31,"x_max":406,"o":"m 31 865 q 158 888 100 888 q 259 868 216 888 q 330 812 302 847 q 374 726 357 777 q 406 492 406 633 l 406 -334 l 302 -334 l 302 492 q 155 796 302 796 q 31 769 93 796 l 31 865 m 158 496 q 208 438 208 496 q 158 379 208 379 q 111 438 111 379 q 158 496 111 496 z "},"כּ":{"ha":466,"x_min":31,"x_max":406,"o":"m 31 865 q 158 888 100 888 q 259 868 216 888 q 330 812 302 847 q 374 726 357 777 q 406 492 406 633 l 406 358 q 400 254 406 302 q 378 155 395 206 q 335 68 361 104 q 264 9 309 33 q 155 -14 219 -14 q 33 5 90 -14 l 33 98 q 111 78 85 81 q 162 76 136 76 q 213 91 187 76 q 253 132 238 106 q 279 186 269 158 q 293 250 289 214 q 300 358 300 307 l 300 492 q 155 796 300 796 q 31 770 100 796 l 31 865 m 144 496 q 194 438 194 496 q 144 379 194 379 q 97 438 97 379 q 144 496 97 496 z "},"לּ":{"ha":460,"x_min":29,"x_max":435,"o":"m 435 878 l 435 787 q 378 557 415 707 q 326 341 342 408 q 261 0 309 249 l 159 0 q 191 166 165 35 q 222 336 216 297 l 335 787 l 30 787 l 30 1061 l 132 1061 l 132 878 l 435 878 m 77 496 q 126 438 126 496 q 77 379 126 379 q 29 438 29 379 q 77 496 29 496 z "},"מּ":{"ha":633,"x_min":36,"x_max":545,"o":"m 303 876 q 319 882 303 876 q 370 888 335 888 q 432 877 404 888 q 478 849 460 866 q 509 805 496 832 q 529 752 522 777 q 540 690 536 726 q 545 566 545 635 l 545 0 l 288 0 l 288 86 l 443 86 l 443 566 q 430 726 443 686 q 387 790 414 776 q 344 799 371 799 q 290 784 317 799 q 247 747 263 769 q 203 668 214 704 l 198 653 l 139 0 l 36 0 l 88 578 q 95 683 95 656 q 93 729 96 709 q 86 765 90 749 q 77 801 83 781 q 67 832 71 821 q 58 858 64 842 q 52 875 52 874 l 154 875 q 170 828 158 865 q 185 773 181 791 l 191 773 q 216 810 197 788 q 253 848 235 833 q 303 876 272 863 m 317 496 q 366 438 366 496 q 317 379 366 379 q 269 438 269 379 q 317 496 269 496 z "},"נּ":{"ha":418,"x_min":27,"x_max":332,"o":"m 62 877 q 147 888 112 888 q 211 881 182 888 q 259 863 239 874 q 292 831 278 851 q 313 791 305 811 q 326 742 321 772 q 332 625 332 699 l 332 231 q 325 121 332 179 q 311 32 317 64 l 303 0 l 27 0 l 27 86 l 213 86 q 229 231 229 142 l 229 670 q 213 760 229 726 q 134 799 193 799 q 62 787 110 799 l 62 877 m 127 496 q 176 438 176 496 q 127 379 176 379 q 79 438 79 379 q 127 496 79 496 z "},"סּ":{"ha":628,"x_min":59,"x_max":568,"o":"m 313 888 q 460 827 399 888 q 555 614 528 759 q 568 437 568 536 q 554 261 568 339 q 517 132 541 183 q 460 48 494 81 q 313 -14 399 -14 q 137 84 207 -14 q 80 225 100 135 q 59 437 59 315 q 158 793 59 663 l 71 788 l 71 876 q 313 888 208 888 m 255 795 q 184 655 203 740 q 165 452 165 570 q 176 260 165 333 q 209 148 187 187 q 255 92 230 109 q 313 75 281 75 q 371 92 346 75 q 418 148 397 109 q 463 437 463 230 q 401 754 463 675 q 360 789 382 779 q 313 799 339 799 l 255 795 m 314 496 q 363 438 363 496 q 314 379 363 379 q 267 438 267 379 q 314 496 267 496 z "},"ףּ":{"ha":640,"x_min":54,"x_max":553,"o":"m 279 296 q 115 367 176 296 q 54 579 54 439 q 123 804 54 720 q 298 888 191 888 q 445 827 383 888 q 538 614 513 759 q 553 437 553 536 l 553 -334 l 450 -334 l 450 437 q 404 727 450 645 q 357 782 382 766 q 295 799 331 799 q 231 776 260 799 q 186 719 201 753 q 155 583 155 650 q 286 378 155 385 q 300 376 290 378 l 281 296 q 279 296 281 296 m 320 651 q 370 592 370 651 q 320 534 370 534 q 273 592 273 534 q 320 651 273 651 z "},"פּ":{"ha":612,"x_min":55,"x_max":553,"o":"m 268 297 q 112 373 169 300 q 55 583 55 445 q 123 805 55 721 q 298 888 192 888 q 445 827 384 888 q 538 614 513 758 q 553 437 553 536 q 538 261 553 339 q 499 133 524 183 q 439 49 474 82 q 290 -14 376 -14 q 142 -1 210 -14 l 121 2 l 121 92 q 290 76 211 76 q 447 437 447 76 q 403 727 447 647 q 357 782 382 766 q 296 799 332 799 q 231 776 260 799 q 186 718 201 753 q 155 581 155 648 q 185 433 155 484 q 286 378 216 381 l 300 377 l 282 296 l 268 297 m 307 651 q 356 592 356 651 q 307 534 356 534 q 259 592 259 534 q 307 651 259 651 z "},"צּ":{"ha":568,"x_min":39,"x_max":524,"o":"m 507 0 l 41 0 l 41 86 l 272 86 l 391 83 l 267 326 l 39 875 l 147 875 l 332 410 q 401 671 382 466 l 421 874 l 524 874 l 510 728 q 468 480 495 570 q 376 326 441 390 l 507 54 l 507 0 m 113 439 q 163 380 163 439 q 113 321 163 321 q 66 380 66 321 q 113 439 66 439 z "},"קּ":{"ha":624,"x_min":96,"x_max":581,"o":"m 385 15 l 385 0 l 284 0 l 284 15 q 289 70 284 43 q 297 113 294 96 q 306 154 300 130 q 315 196 311 179 q 327 242 319 212 q 339 288 335 271 q 398 507 357 351 q 474 788 439 663 l 96 788 l 96 875 l 581 875 l 581 799 l 468 385 q 456 342 466 377 q 444 294 447 307 q 431 250 440 282 q 419 202 422 217 q 409 159 415 186 q 399 115 402 131 q 392 77 395 98 q 385 15 385 42 m 281 522 q 331 464 331 522 q 281 405 331 405 q 234 464 234 405 q 281 522 234 522 m 96 -334 l 96 517 l 199 517 l 199 -334 l 96 -334 z "},"רּ":{"ha":488,"x_min":20,"x_max":401,"o":"m 155 888 q 349 832 298 888 q 401 624 401 777 l 401 0 l 298 0 l 298 624 q 292 713 298 680 q 268 766 286 745 q 222 793 250 787 q 148 800 194 800 q 20 792 101 800 l 20 880 q 155 888 98 888 m 168 496 q 217 438 217 496 q 168 379 217 379 q 120 438 120 379 q 168 496 120 496 z "},"שּ":{"ha":765,"x_min":43,"x_max":723,"o":"m 245 0 l 116 0 l 43 875 l 142 875 l 182 393 q 284 476 252 418 q 328 651 317 534 l 347 875 l 444 875 l 425 652 q 384 464 414 533 q 190 309 333 343 l 208 87 l 245 87 q 418 140 342 87 q 536 283 493 193 q 590 493 579 374 l 625 875 l 723 875 l 688 493 q 553 132 667 264 q 476 63 519 91 q 374 17 433 35 q 245 0 315 0 m 380 353 q 429 294 429 353 q 380 235 429 235 q 332 294 332 235 q 380 353 332 353 z "},"תּ":{"ha":643,"x_min":14,"x_max":553,"o":"m 48 867 q 79 871 50 867 q 136 879 108 876 q 290 888 214 888 q 413 873 367 888 q 486 835 459 859 q 528 775 513 812 q 549 704 544 739 q 553 623 553 669 l 553 0 l 451 0 l 451 623 q 385 787 451 760 q 309 800 353 800 q 210 797 264 800 l 210 239 q 183 49 210 102 q 77 -4 156 -4 q 14 5 52 -4 l 14 94 q 50 88 47 88 q 94 110 81 88 q 106 174 106 131 l 106 787 q 48 780 90 785 l 48 867 m 321 496 q 371 438 371 496 q 321 379 371 379 q 274 438 274 379 q 321 496 274 496 z "},"וֹ":{"ha":285,"x_min":68,"x_max":193,"o":"m 115 1046 q 165 987 165 1046 q 115 928 165 928 q 68 987 68 928 q 115 1046 68 1046 m 91 0 l 91 875 l 193 875 l 193 0 l 91 0 z "}}}
